STARTFONT 2.1
COMMENT
COMMENT Converted from OpenType font "GenBasR.ttf" by "otf2bdf 3.0".
COMMENT
FONT -FreeType-Gentium Basic-Medium-R-Normal--23-230-72-72-P-110-ISO10646-1
SIZE 23 72 72
FONTBOUNDINGBOX 35 33 -12 -8
STARTPROPERTIES 19
FOUNDRY "FreeType"
FAMILY_NAME "Gentium Basic"
WEIGHT_NAME "Medium"
SLANT "R"
SETWIDTH_NAME "Normal"
ADD_STYLE_NAME ""
PIXEL_SIZE 23
POINT_SIZE 230
RESOLUTION_X 72
RESOLUTION_Y 72
SPACING "P"
AVERAGE_WIDTH 110
CHARSET_REGISTRY "ISO10646"
CHARSET_ENCODING "1"
FONT_ASCENT 20
FONT_DESCENT 6
COPYRIGHT "Copyright (c) SIL International, 2003-2008."
_OTF_FONTFILE "GenBasR.ttf"
_OTF_PSNAME "GentiumBasic"
ENDPROPERTIES
CHARS 704
STARTCHAR 0020
ENCODING 32
SWIDTH 217 0
DWIDTH 5 0
BBX 0 0 0 0
BITMAP
ENDCHAR
STARTCHAR 0021
ENCODING 33
SWIDTH 260 0
DWIDTH 6 0
BBX 2 17 2 0
BITMAP
40
C0
C0
C0
C0
C0
C0
C0
C0
C0
C0
C0
80
00
C0
C0
C0
ENDCHAR
STARTCHAR 0022
ENCODING 34
SWIDTH 434 0
DWIDTH 10 0
BBX 6 8 2 9
BITMAP
CC
CC
CC
CC
CC
CC
CC
8C
ENDCHAR
STARTCHAR 0023
ENCODING 35
SWIDTH 478 0
DWIDTH 11 0
BBX 10 13 1 1
BITMAP
0C80
0980
0900
0900
7FC0
1300
1200
3200
FF80
2400
6400
4400
4C00
ENDCHAR
STARTCHAR 0024
ENCODING 36
SWIDTH 478 0
DWIDTH 11 0
BBX 9 18 1 -2
BITMAP
0C00
0C00
3F80
6D80
CD00
CC00
EC00
7C00
3F00
0F00
0D80
0D80
8D80
CD80
EF00
7E00
0C00
0C00
ENDCHAR
STARTCHAR 0025
ENCODING 37
SWIDTH 695 0
DWIDTH 16 0
BBX 14 14 1 0
BITMAP
3818
4830
CC60
CC40
CCC0
CD80
4B00
7238
064C
0CCC
08CC
10CC
30C8
6070
ENDCHAR
STARTCHAR 0026
ENCODING 38
SWIDTH 695 0
DWIDTH 16 0
BBX 14 16 1 0
BITMAP
0F00
1980
3180
3180
3100
3300
3C00
3CFC
7C70
6630
C730
C3B0
C1E0
C0E0
60B0
3F1C
ENDCHAR
STARTCHAR 0027
ENCODING 39
SWIDTH 260 0
DWIDTH 6 0
BBX 2 8 2 9
BITMAP
C0
C0
C0
C0
C0
C0
C0
80
ENDCHAR
STARTCHAR 0028
ENCODING 40
SWIDTH 304 0
DWIDTH 7 0
BBX 6 22 1 -4
BITMAP
0C
18
10
20
60
60
40
C0
C0
C0
C0
C0
C0
C0
C0
40
60
60
20
30
18
0C
ENDCHAR
STARTCHAR 0029
ENCODING 41
SWIDTH 304 0
DWIDTH 7 0
BBX 6 22 0 -4
BITMAP
C0
60
30
10
18
18
08
0C
0C
0C
0C
0C
0C
0C
0C
08
18
18
10
20
60
C0
ENDCHAR
STARTCHAR 002A
ENCODING 42
SWIDTH 434 0
DWIDTH 10 0
BBX 9 10 1 8
BITMAP
1800
1800
8900
EB80
3C00
3C00
EB00
8900
1800
1800
ENDCHAR
STARTCHAR 002B
ENCODING 43
SWIDTH 391 0
DWIDTH 9 0
BBX 8 8 1 2
BITMAP
18
18
18
FF
18
18
18
18
ENDCHAR
STARTCHAR 002C
ENCODING 44
SWIDTH 217 0
DWIDTH 5 0
BBX 4 6 0 -3
BITMAP
70
F0
30
30
20
40
ENDCHAR
STARTCHAR 002D
ENCODING 45
SWIDTH 347 0
DWIDTH 8 0
BBX 6 1 1 5
BITMAP
FC
ENDCHAR
STARTCHAR 002E
ENCODING 46
SWIDTH 217 0
DWIDTH 5 0
BBX 2 3 2 0
BITMAP
C0
C0
C0
ENDCHAR
STARTCHAR 002F
ENCODING 47
SWIDTH 478 0
DWIDTH 11 0
BBX 9 22 1 -4
BITMAP
0080
0180
0100
0300
0300
0200
0600
0600
0C00
0C00
0800
1800
1800
1000
3000
3000
6000
6000
4000
C000
C000
8000
ENDCHAR
STARTCHAR 0030
ENCODING 48
SWIDTH 478 0
DWIDTH 11 0
BBX 9 14 1 0
BITMAP
1C00
2700
6300
4380
C180
C180
C180
C180
C180
C180
C100
6100
6200
1C00
ENDCHAR
STARTCHAR 0031
ENCODING 49
SWIDTH 478 0
DWIDTH 11 0
BBX 8 14 2 0
BITMAP
18
78
98
18
18
18
18
18
18
18
18
18
18
FF
ENDCHAR
STARTCHAR 0032
ENCODING 50
SWIDTH 478 0
DWIDTH 11 0
BBX 8 14 1 0
BITMAP
3C
67
C3
83
03
06
06
0C
18
18
30
61
C1
FF
ENDCHAR
STARTCHAR 0033
ENCODING 51
SWIDTH 521 0
DWIDTH 12 0
BBX 9 14 1 0
BITMAP
1E00
6700
C300
0300
0200
0400
1E00
0300
0180
0180
0180
0180
C300
3C00
ENDCHAR
STARTCHAR 0034
ENCODING 52
SWIDTH 478 0
DWIDTH 11 0
BBX 10 14 0 0
BITMAP
0300
0700
0700
0B00
1B00
1300
2300
6300
4300
FFC0
0300
0300
0300
0FC0
ENDCHAR
STARTCHAR 0035
ENCODING 53
SWIDTH 478 0
DWIDTH 11 0
BBX 9 14 0 0
BITMAP
0080
3F00
2000
2000
6000
7E00
4300
0180
0180
0180
0180
0100
C300
3C00
ENDCHAR
STARTCHAR 0036
ENCODING 54
SWIDTH 478 0
DWIDTH 11 0
BBX 9 14 1 0
BITMAP
0300
0C00
3000
2000
6000
DE00
E300
C180
C180
C180
C180
6100
6300
1E00
ENDCHAR
STARTCHAR 0037
ENCODING 55
SWIDTH 478 0
DWIDTH 11 0
BBX 9 13 1 0
BITMAP
7F80
8100
8100
0300
0200
0600
0400
0C00
0800
1800
1800
3000
2000
ENDCHAR
STARTCHAR 0038
ENCODING 56
SWIDTH 478 0
DWIDTH 11 0
BBX 9 14 1 0
BITMAP
3E00
4700
C300
C300
C300
7600
1E00
2700
6380
C180
C180
C180
6300
3C00
ENDCHAR
STARTCHAR 0039
ENCODING 57
SWIDTH 478 0
DWIDTH 11 0
BBX 9 14 1 0
BITMAP
1E00
6300
4300
C180
C180
C180
C180
6380
3D80
0100
0300
0600
0800
7000
ENDCHAR
STARTCHAR 003A
ENCODING 58
SWIDTH 217 0
DWIDTH 5 0
BBX 2 11 2 0
BITMAP
C0
C0
C0
00
00
00
00
00
C0
C0
C0
ENDCHAR
STARTCHAR 003B
ENCODING 59
SWIDTH 217 0
DWIDTH 5 0
BBX 4 14 0 -3
BITMAP
30
30
30
00
00
00
00
00
70
F0
30
30
20
40
ENDCHAR
STARTCHAR 003C
ENCODING 60
SWIDTH 434 0
DWIDTH 10 0
BBX 8 7 1 3
BITMAP
01
0F
78
C0
70
1E
03
ENDCHAR
STARTCHAR 003D
ENCODING 61
SWIDTH 434 0
DWIDTH 10 0
BBX 8 4 1 4
BITMAP
FF
00
00
FF
ENDCHAR
STARTCHAR 003E
ENCODING 62
SWIDTH 434 0
DWIDTH 10 0
BBX 8 7 1 3
BITMAP
C0
78
0F
03
1E
F0
80
ENDCHAR
STARTCHAR 003F
ENCODING 63
SWIDTH 434 0
DWIDTH 10 0
BBX 8 17 1 0
BITMAP
3E
67
C3
C3
03
03
06
0C
0C
18
18
18
10
00
18
18
18
ENDCHAR
STARTCHAR 0040
ENCODING 64
SWIDTH 826 0
DWIDTH 19 0
BBX 17 19 1 -4
BITMAP
01F000
061C00
180600
300300
200300
61D380
423180
C43180
CC3180
CC3180
CC3180
CC3100
EC3300
667200
639C00
300000
380200
0E0F00
03F000
ENDCHAR
STARTCHAR 0041
ENCODING 65
SWIDTH 608 0
DWIDTH 14 0
BBX 13 14 0 0
BITMAP
0200
0300
0500
0580
0580
0880
08C0
08C0
1FC0
1060
1060
2030
2030
F878
ENDCHAR
STARTCHAR 0042
ENCODING 66
SWIDTH 521 0
DWIDTH 12 0
BBX 11 14 0 0
BITMAP
7F00
B1C0
30C0
30C0
30C0
3180
3F80
31C0
30E0
3060
3060
3060
30C0
FF80
ENDCHAR
STARTCHAR 0043
ENCODING 67
SWIDTH 521 0
DWIDTH 12 0
BBX 11 14 1 0
BITMAP
07C0
1860
2000
6000
4000
C000
C000
C000
C000
C000
6000
6020
3840
0F80
ENDCHAR
STARTCHAR 0044
ENCODING 68
SWIDTH 608 0
DWIDTH 14 0
BBX 13 14 0 0
BITMAP
7F80
B0E0
3070
3030
3018
3018
3018
3018
3018
3018
3030
3070
30E0
FF80
ENDCHAR
STARTCHAR 0045
ENCODING 69
SWIDTH 478 0
DWIDTH 11 0
BBX 11 14 0 0
BITMAP
FFC0
3040
3040
3000
3000
3000
3F80
3100
3000
3000
3000
3020
3060
FFC0
ENDCHAR
STARTCHAR 0046
ENCODING 70
SWIDTH 478 0
DWIDTH 11 0
BBX 10 14 0 0
BITMAP
FFC0
3040
3040
3000
3000
3000
3F80
3100
3000
3000
3000
3000
3000
FC00
ENDCHAR
STARTCHAR 0047
ENCODING 71
SWIDTH 565 0
DWIDTH 13 0
BBX 11 14 1 0
BITMAP
0F80
10C0
2000
6000
C000
C000
C000
C3E0
C0C0
C0C0
60C0
60C0
30C0
1F00
ENDCHAR
STARTCHAR 0048
ENCODING 72
SWIDTH 652 0
DWIDTH 15 0
BBX 15 14 0 0
BITMAP
FC7E
3018
3018
3018
3018
3018
3FF8
3018
3018
3018
3018
3018
3018
FC7E
ENDCHAR
STARTCHAR 0049
ENCODING 73
SWIDTH 304 0
DWIDTH 7 0
BBX 6 14 0 0
BITMAP
FC
30
30
30
30
30
30
30
30
30
30
30
30
FC
ENDCHAR
STARTCHAR 004A
ENCODING 74
SWIDTH 304 0
DWIDTH 7 0
BBX 9 18 -2 -4
BITMAP
1F80
0600
0600
0600
0600
0600
0600
0600
0600
0600
0600
0600
0600
0600
0600
0400
4800
F000
ENDCHAR
STARTCHAR 004B
ENCODING 75
SWIDTH 565 0
DWIDTH 13 0
BBX 13 14 0 0
BITMAP
FCF0
3040
3080
3100
3200
3600
3C00
3600
3600
3300
3180
30C0
3060
FC38
ENDCHAR
STARTCHAR 004C
ENCODING 76
SWIDTH 478 0
DWIDTH 11 0
BBX 11 14 0 0
BITMAP
FC00
3000
3000
3000
3000
3000
3000
3000
3000
3000
3000
3020
3040
FFC0
ENDCHAR
STARTCHAR 004D
ENCODING 77
SWIDTH 826 0
DWIDTH 19 0
BBX 17 14 1 0
BITMAP
F00700
700E00
700E00
781E00
681600
6C1600
6C2600
662600
666600
634600
63C600
618600
618600
F10F80
ENDCHAR
STARTCHAR 004E
ENCODING 78
SWIDTH 652 0
DWIDTH 15 0
BBX 15 14 0 0
BITMAP
F07E
3018
3818
3C18
3418
3218
3318
3198
3098
30D8
3078
3038
3038
FC18
ENDCHAR
STARTCHAR 004F
ENCODING 79
SWIDTH 608 0
DWIDTH 14 0
BBX 12 14 1 0
BITMAP
0F80
30C0
2060
6060
C030
C030
C030
C030
C030
C030
6060
6040
3080
1F00
ENDCHAR
STARTCHAR 0050
ENCODING 80
SWIDTH 521 0
DWIDTH 12 0
BBX 11 14 0 0
BITMAP
7F80
B0C0
3060
3060
3060
3060
30C0
3F00
3000
3000
3000
3000
3000
FC00
ENDCHAR
STARTCHAR 0051
ENCODING 81
SWIDTH 608 0
DWIDTH 14 0
BBX 14 17 1 -3
BITMAP
0F80
30C0
2060
6060
C030
C030
C030
C030
C030
C030
6060
6060
30C0
1F00
0180
00C4
0038
ENDCHAR
STARTCHAR 0052
ENCODING 82
SWIDTH 565 0
DWIDTH 13 0
BBX 13 14 0 0
BITMAP
7F00
B180
30C0
30C0
30C0
3080
3100
3E00
3300
3100
3180
30C0
30C0
FC78
ENDCHAR
STARTCHAR 0053
ENCODING 83
SWIDTH 478 0
DWIDTH 11 0
BBX 9 14 1 0
BITMAP
3E00
6300
C000
C000
E000
7800
3E00
0F00
0380
0180
8180
8100
C300
7C00
ENDCHAR
STARTCHAR 0054
ENCODING 84
SWIDTH 565 0
DWIDTH 13 0
BBX 12 14 0 0
BITMAP
FFF0
8610
8610
0600
0600
0600
0600
0600
0600
0600
0600
0600
0600
1F80
ENDCHAR
STARTCHAR 0055
ENCODING 85
SWIDTH 652 0
DWIDTH 15 0
BBX 15 14 0 0
BITMAP
FC7E
3018
3018
3018
3018
3018
3018
3018
3018
3018
3018
1830
1C60
07C0
ENDCHAR
STARTCHAR 0056
ENCODING 86
SWIDTH 652 0
DWIDTH 15 0
BBX 14 14 0 0
BITMAP
F83C
3018
3010
1810
1830
1820
0C60
0C40
0440
06C0
0680
0380
0380
0100
ENDCHAR
STARTCHAR 0057
ENCODING 87
SWIDTH 869 0
DWIDTH 20 0
BBX 19 14 0 0
BITMAP
F843E0
306080
306080
30E080
10B180
10B100
199100
191900
191900
0B0B00
0E0E00
0E0E00
0E0600
040600
ENDCHAR
STARTCHAR 0058
ENCODING 88
SWIDTH 608 0
DWIDTH 14 0
BBX 14 14 0 0
BITMAP
FCF8
3030
1860
1CC0
0C80
0780
0300
0380
0580
0CC0
1860
1070
3030
F87C
ENDCHAR
STARTCHAR 0059
ENCODING 89
SWIDTH 608 0
DWIDTH 14 0
BBX 14 14 0 0
BITMAP
E07C
3030
1820
1860
0C40
06C0
0780
0300
0300
0300
0300
0300
0300
0FC0
ENDCHAR
STARTCHAR 005A
ENCODING 90
SWIDTH 521 0
DWIDTH 12 0
BBX 10 14 1 0
BITMAP
7FC0
4180
8180
0300
0600
0600
0C00
1C00
1800
3000
3000
6040
C040
FFC0
ENDCHAR
STARTCHAR 005B
ENCODING 91
SWIDTH 304 0
DWIDTH 7 0
BBX 5 22 1 -4
BITMAP
F8
C0
C0
C0
C0
C0
C0
C0
C0
C0
C0
C0
C0
C0
C0
C0
C0
C0
C0
C0
C0
F8
ENDCHAR
STARTCHAR 005C
ENCODING 92
SWIDTH 478 0
DWIDTH 11 0
BBX 9 22 1 -4
BITMAP
8000
C000
C000
4000
6000
2000
3000
3000
1000
1800
1800
0800
0C00
0400
0400
0600
0200
0300
0300
0100
0180
0080
ENDCHAR
STARTCHAR 005D
ENCODING 93
SWIDTH 347 0
DWIDTH 8 0
BBX 5 22 1 -4
BITMAP
F8
18
18
18
18
18
18
18
18
18
18
18
18
18
18
18
18
18
18
18
18
F8
ENDCHAR
STARTCHAR 005E
ENCODING 94
SWIDTH 478 0
DWIDTH 11 0
BBX 9 11 1 6
BITMAP
0800
0C00
1C00
1600
3600
2200
2300
6300
4180
4180
8180
ENDCHAR
STARTCHAR 005F
ENCODING 95
SWIDTH 478 0
DWIDTH 11 0
BBX 9 1 1 -3
BITMAP
FF80
ENDCHAR
STARTCHAR 0060
ENCODING 96
SWIDTH 304 0
DWIDTH 7 0
BBX 5 5 0 12
BITMAP
E0
60
30
10
08
ENDCHAR
STARTCHAR 0061
ENCODING 97
SWIDTH 478 0
DWIDTH 11 0
BBX 10 10 1 0
BITMAP
1E00
6300
C300
0300
1F00
6300
C300
C300
C700
7BC0
ENDCHAR
STARTCHAR 0062
ENCODING 98
SWIDTH 521 0
DWIDTH 12 0
BBX 10 17 1 0
BITMAP
6000
E000
6000
6000
6000
6000
6000
6700
7980
71C0
60C0
60C0
60C0
60C0
6080
7100
1E00
ENDCHAR
STARTCHAR 0063
ENCODING 99
SWIDTH 434 0
DWIDTH 10 0
BBX 9 10 1 0
BITMAP
0F00
3180
6000
C000
C000
C000
C000
6000
7180
1E00
ENDCHAR
STARTCHAR 0064
ENCODING 100
SWIDTH 521 0
DWIDTH 12 0
BBX 11 17 1 0
BITMAP
0180
0780
0180
0180
0180
0180
0180
1F80
2380
4180
C180
C180
C180
C180
E180
67A0
39C0
ENDCHAR
STARTCHAR 0065
ENCODING 101
SWIDTH 478 0
DWIDTH 11 0
BBX 9 10 1 0
BITMAP
1E00
2100
4180
FF80
C000
C000
C000
E000
7180
3E00
ENDCHAR
STARTCHAR 0066
ENCODING 102
SWIDTH 304 0
DWIDTH 7 0
BBX 9 17 0 0
BITMAP
0780
0900
1000
3000
3000
3000
3000
7E00
B000
3000
3000
3000
3000
3000
3000
3000
FC00
ENDCHAR
STARTCHAR 0067
ENCODING 103
SWIDTH 521 0
DWIDTH 12 0
BBX 12 15 0 -5
BITMAP
1F30
31C0
60C0
60C0
60C0
3180
1F00
1800
3800
1FC0
6070
C030
C030
6060
3F80
ENDCHAR
STARTCHAR 0068
ENCODING 104
SWIDTH 565 0
DWIDTH 13 0
BBX 13 17 0 0
BITMAP
3000
F000
3000
3000
3000
3000
3000
33C0
3460
3860
3060
3060
3060
3060
3060
3060
FDF8
ENDCHAR
STARTCHAR 0069
ENCODING 105
SWIDTH 260 0
DWIDTH 6 0
BBX 6 15 0 0
BITMAP
30
30
30
00
00
30
F0
30
30
30
30
30
30
30
FC
ENDCHAR
STARTCHAR 006A
ENCODING 106
SWIDTH 260 0
DWIDTH 6 0
BBX 7 20 -3 -5
BITMAP
06
06
06
00
00
06
1E
06
06
06
06
06
06
06
06
06
06
04
08
F0
ENDCHAR
STARTCHAR 006B
ENCODING 107
SWIDTH 521 0
DWIDTH 12 0
BBX 12 17 0 0
BITMAP
3000
F000
3000
3000
3000
3000
3000
31E0
3180
3300
3400
3C00
3600
3300
3180
30C0
F8F0
ENDCHAR
STARTCHAR 006C
ENCODING 108
SWIDTH 260 0
DWIDTH 6 0
BBX 6 17 0 0
BITMAP
30
F0
30
30
30
30
30
30
30
30
30
30
30
30
30
30
FC
ENDCHAR
STARTCHAR 006D
ENCODING 109
SWIDTH 869 0
DWIDTH 20 0
BBX 20 10 0 0
BITMAP
71C780
B668C0
3870C0
3060C0
3060C0
3060C0
3060C0
3060C0
3060C0
FDFBF0
ENDCHAR
STARTCHAR 006E
ENCODING 110
SWIDTH 565 0
DWIDTH 13 0
BBX 13 10 0 0
BITMAP
71C0
B660
3860
3060
3060
3060
3060
3060
3060
FDF8
ENDCHAR
STARTCHAR 006F
ENCODING 111
SWIDTH 521 0
DWIDTH 12 0
BBX 10 10 1 0
BITMAP
1E00
2380
4180
C0C0
C0C0
C0C0
C0C0
E080
7100
1E00
ENDCHAR
STARTCHAR 0070
ENCODING 112
SWIDTH 521 0
DWIDTH 12 0
BBX 11 15 0 -5
BITMAP
7380
BCC0
38E0
3060
3060
3060
3060
3040
38C0
3700
3000
3000
3000
3000
FC00
ENDCHAR
STARTCHAR 0071
ENCODING 113
SWIDTH 521 0
DWIDTH 12 0
BBX 11 15 1 -5
BITMAP
1E80
2380
6180
C180
C180
C180
C180
E180
6380
3D80
0180
0180
0180
0180
07E0
ENDCHAR
STARTCHAR 0072
ENCODING 114
SWIDTH 391 0
DWIDTH 9 0
BBX 9 10 0 0
BITMAP
3380
FC80
3800
3000
3000
3000
3000
3000
3000
FC00
ENDCHAR
STARTCHAR 0073
ENCODING 115
SWIDTH 391 0
DWIDTH 9 0
BBX 7 10 1 0
BITMAP
7C
CC
C0
E0
78
1E
06
86
86
F8
ENDCHAR
STARTCHAR 0074
ENCODING 116
SWIDTH 347 0
DWIDTH 8 0
BBX 8 14 0 0
BITMAP
10
30
30
30
7F
B0
30
30
30
30
30
30
31
1E
ENDCHAR
STARTCHAR 0075
ENCODING 117
SWIDTH 521 0
DWIDTH 12 0
BBX 11 10 1 0
BITMAP
6180
E780
6180
6180
6180
6180
6180
6180
67A0
39C0
ENDCHAR
STARTCHAR 0076
ENCODING 118
SWIDTH 478 0
DWIDTH 11 0
BBX 11 10 0 0
BITMAP
F9E0
2040
3080
3080
1980
1900
0900
0E00
0600
0400
ENDCHAR
STARTCHAR 0077
ENCODING 119
SWIDTH 695 0
DWIDTH 16 0
BBX 16 10 0 0
BITMAP
F88F
2182
31C4
31C4
1364
1A6C
1A28
0C38
0C38
0C10
ENDCHAR
STARTCHAR 0078
ENCODING 120
SWIDTH 521 0
DWIDTH 12 0
BBX 11 10 0 0
BITMAP
F9E0
3080
1900
0F00
0600
0E00
0B00
1180
20C0
F1E0
ENDCHAR
STARTCHAR 0079
ENCODING 121
SWIDTH 478 0
DWIDTH 11 0
BBX 12 15 -1 -5
BITMAP
7CF0
1020
1840
1840
0CC0
0C80
0480
0700
0300
0300
0200
0600
0400
7800
F000
ENDCHAR
STARTCHAR 007A
ENCODING 122
SWIDTH 434 0
DWIDTH 10 0
BBX 8 10 1 0
BITMAP
FF
83
86
0C
08
18
30
61
41
FF
ENDCHAR
STARTCHAR 007B
ENCODING 123
SWIDTH 347 0
DWIDTH 8 0
BBX 6 22 1 -4
BITMAP
04
18
10
30
30
30
38
18
18
18
30
F0
18
18
18
18
30
30
30
30
18
04
ENDCHAR
STARTCHAR 007C
ENCODING 124
SWIDTH 217 0
DWIDTH 5 0
BBX 2 24 2 -5
BITMAP
C0
C0
C0
C0
C0
C0
C0
C0
C0
C0
C0
C0
C0
C0
C0
C0
C0
C0
C0
C0
C0
C0
C0
C0
ENDCHAR
STARTCHAR 007D
ENCODING 125
SWIDTH 347 0
DWIDTH 8 0
BBX 6 22 1 -4
BITMAP
80
60
30
30
30
30
60
60
60
60
3C
10
20
60
60
70
30
30
30
20
60
80
ENDCHAR
STARTCHAR 007E
ENCODING 126
SWIDTH 478 0
DWIDTH 11 0
BBX 10 4 1 5
BITMAP
3040
7C80
9F00
8700
ENDCHAR
STARTCHAR 00A0
ENCODING 160
SWIDTH 217 0
DWIDTH 5 0
BBX 0 0 0 0
BITMAP
ENDCHAR
STARTCHAR 00A1
ENCODING 161
SWIDTH 260 0
DWIDTH 6 0
BBX 2 16 2 -6
BITMAP
C0
C0
80
40
C0
C0
C0
C0
C0
C0
C0
C0
C0
C0
C0
80
ENDCHAR
STARTCHAR 00A2
ENCODING 162
SWIDTH 478 0
DWIDTH 11 0
BBX 9 14 1 0
BITMAP
0C00
0C00
1F80
6D80
4C00
CC00
CC00
CC00
CC00
EC80
7D80
3F00
0C00
0C00
ENDCHAR
STARTCHAR 00A3
ENCODING 163
SWIDTH 478 0
DWIDTH 11 0
BBX 10 14 0 0
BITMAP
0780
18C0
1080
3080
3000
3000
3000
7E00
3000
3000
3000
2040
2040
FFC0
ENDCHAR
STARTCHAR 00A4
ENCODING 164
SWIDTH 478 0
DWIDTH 11 0
BBX 9 7 1 3
BITMAP
DD80
7700
6300
6300
7300
7F00
8080
ENDCHAR
STARTCHAR 00A5
ENCODING 165
SWIDTH 478 0
DWIDTH 11 0
BBX 12 14 -1 0
BITMAP
E1F0
3040
30C0
1980
1D80
0F00
0700
0600
3FC0
0600
0600
0600
0600
1F80
ENDCHAR
STARTCHAR 00A6
ENCODING 166
SWIDTH 217 0
DWIDTH 5 0
BBX 2 24 2 -5
BITMAP
C0
C0
C0
C0
C0
C0
C0
C0
C0
C0
80
00
00
40
C0
C0
C0
C0
C0
C0
C0
C0
C0
C0
ENDCHAR
STARTCHAR 00A7
ENCODING 167
SWIDTH 478 0
DWIDTH 11 0
BBX 9 16 1 0
BITMAP
1E00
6300
6200
7000
3800
5E00
C700
C380
E180
7180
3F00
0F00
0700
4300
6300
3E00
ENDCHAR
STARTCHAR 00A8
ENCODING 168
SWIDTH 391 0
DWIDTH 9 0
BBX 7 3 1 12
BITMAP
C6
C6
C6
ENDCHAR
STARTCHAR 00A9
ENCODING 169
SWIDTH 695 0
DWIDTH 16 0
BBX 15 14 0 0
BITMAP
07C0
1830
31F8
622C
C606
CC06
CC06
CC06
CC06
CE26
664C
3398
1830
07C0
ENDCHAR
STARTCHAR 00AA
ENCODING 170
SWIDTH 260 0
DWIDTH 6 0
BBX 6 8 0 6
BITMAP
70
98
18
38
78
7C
00
7C
ENDCHAR
STARTCHAR 00AB
ENCODING 171
SWIDTH 478 0
DWIDTH 11 0
BBX 9 10 1 0
BITMAP
1180
1100
2200
6600
CC00
CC00
6600
2200
1100
1180
ENDCHAR
STARTCHAR 00AC
ENCODING 172
SWIDTH 478 0
DWIDTH 11 0
BBX 10 5 0 2
BITMAP
FFC0
00C0
00C0
00C0
00C0
ENDCHAR
STARTCHAR 00AD
ENCODING 173
SWIDTH 347 0
DWIDTH 8 0
BBX 6 1 1 5
BITMAP
FC
ENDCHAR
STARTCHAR 00AE
ENCODING 174
SWIDTH 347 0
DWIDTH 8 0
BBX 8 8 0 8
BITMAP
3C
42
BD
95
99
99
56
3C
ENDCHAR
STARTCHAR 00AF
ENCODING 175
SWIDTH 478 0
DWIDTH 11 0
BBX 7 1 2 13
BITMAP
FE
ENDCHAR
STARTCHAR 00B0
ENCODING 176
SWIDTH 347 0
DWIDTH 8 0
BBX 4 5 2 9
BITMAP
60
F0
F0
F0
60
ENDCHAR
STARTCHAR 00B1
ENCODING 177
SWIDTH 391 0
DWIDTH 9 0
BBX 8 10 1 2
BITMAP
18
18
18
18
FF
18
18
18
00
FF
ENDCHAR
STARTCHAR 00B2
ENCODING 178
SWIDTH 347 0
DWIDTH 8 0
BBX 6 8 1 7
BITMAP
78
8C
8C
08
10
20
44
FC
ENDCHAR
STARTCHAR 00B3
ENCODING 179
SWIDTH 304 0
DWIDTH 7 0
BBX 7 8 -1 7
BITMAP
3C
66
06
1C
06
06
86
78
ENDCHAR
STARTCHAR 00B4
ENCODING 180
SWIDTH 304 0
DWIDTH 7 0
BBX 5 5 2 12
BITMAP
18
30
20
40
C0
ENDCHAR
STARTCHAR 00B5
ENCODING 181
SWIDTH 565 0
DWIDTH 13 0
BBX 12 15 1 -5
BITMAP
60C0
E0C0
60C0
60C0
60C0
60C0
60C0
71C0
7FD0
5CE0
4000
4000
6000
6000
7000
ENDCHAR
STARTCHAR 00B6
ENCODING 182
SWIDTH 608 0
DWIDTH 14 0
BBX 13 17 0 -3
BITMAP
1FF8
6360
C360
C360
C360
E360
7360
3F60
0360
0360
0360
0360
0360
0360
0360
0360
0FF8
ENDCHAR
STARTCHAR 00B7
ENCODING 183
SWIDTH 130 0
DWIDTH 3 0
BBX 2 3 1 6
BITMAP
C0
C0
C0
ENDCHAR
STARTCHAR 00B8
ENCODING 184
SWIDTH 217 0
DWIDTH 5 0
BBX 4 5 1 -5
BITMAP
60
60
70
30
C0
ENDCHAR
STARTCHAR 00B9
ENCODING 185
SWIDTH 347 0
DWIDTH 8 0
BBX 6 8 1 7
BITMAP
30
F0
30
30
30
30
30
FC
ENDCHAR
STARTCHAR 00BA
ENCODING 186
SWIDTH 260 0
DWIDTH 6 0
BBX 4 8 1 6
BITMAP
60
F0
F0
F0
F0
60
00
F0
ENDCHAR
STARTCHAR 00BB
ENCODING 187
SWIDTH 478 0
DWIDTH 11 0
BBX 8 10 2 0
BITMAP
88
8C
44
62
33
33
66
44
8C
88
ENDCHAR
STARTCHAR 00BC
ENCODING 188
SWIDTH 565 0
DWIDTH 13 0
BBX 12 14 0 0
BITMAP
1860
78C0
18C0
1980
1B00
1B00
7E00
0460
0CE0
1960
1260
33F0
6060
C0F0
ENDCHAR
STARTCHAR 00BD
ENCODING 189
SWIDTH 608 0
DWIDTH 14 0
BBX 13 14 0 0
BITMAP
3010
F020
3060
3040
3080
3080
F900
0378
0298
0418
0C30
0820
1048
31F8
ENDCHAR
STARTCHAR 00BE
ENCODING 190
SWIDTH 608 0
DWIDTH 14 0
BBX 12 14 1 0
BITMAP
7020
9840
1840
3880
4D80
8D00
7200
0660
04E0
0960
1960
13F0
2060
60F0
ENDCHAR
STARTCHAR 00BF
ENCODING 191
SWIDTH 434 0
DWIDTH 10 0
BBX 8 16 1 -6
BITMAP
18
18
10
04
0C
0C
0C
18
30
60
60
C0
C3
C3
E6
7C
ENDCHAR
STARTCHAR 00C0
ENCODING 192
SWIDTH 608 0
DWIDTH 14 0
BBX 13 20 0 0
BITMAP
1000
1C00
0E00
0300
0080
0000
0200
0300
0500
0580
0580
0880
08C0
08C0
1FC0
1060
1060
2030
2030
F878
ENDCHAR
STARTCHAR 00C1
ENCODING 193
SWIDTH 608 0
DWIDTH 14 0
BBX 13 20 0 0
BITMAP
0080
00C0
03A0
0600
0000
0000
0200
0300
0500
0580
0580
0880
08C0
08C0
1FC0
1060
1060
2030
2030
F878
ENDCHAR
STARTCHAR 00C2
ENCODING 194
SWIDTH 608 0
DWIDTH 14 0
BBX 13 20 0 0
BITMAP
0200
0700
0D80
0840
1000
0000
0200
0300
0500
0580
0580
0880
08C0
08C0
1FC0
1060
1060
2030
2030
F878
ENDCHAR
STARTCHAR 00C3
ENCODING 195
SWIDTH 608 0
DWIDTH 14 0
BBX 13 19 0 0
BITMAP
0440
0E60
13C0
0000
0000
0200
0300
0500
0580
0580
0880
08C0
08C0
1FC0
1060
1060
2030
2030
F878
ENDCHAR
STARTCHAR 00C4
ENCODING 196
SWIDTH 608 0
DWIDTH 14 0
BBX 13 18 0 0
BITMAP
0840
0C60
0840
0000
0200
0300
0500
0580
0580
0880
08C0
08C0
1FC0
1060
1060
2030
2030
F878
ENDCHAR
STARTCHAR 00C5
ENCODING 197
SWIDTH 608 0
DWIDTH 14 0
BBX 13 20 0 0
BITMAP
0200
0700
0780
0700
0000
0000
0200
0300
0500
0580
0580
0880
08C0
08C0
1FC0
1060
1060
2030
2030
F878
ENDCHAR
STARTCHAR 00C6
ENCODING 198
SWIDTH 782 0
DWIDTH 18 0
BBX 18 14 0 0
BITMAP
07FF80
016080
036080
026000
066000
066000
07FF00
0C6200
086000
186000
106000
106040
306040
F9FF80
ENDCHAR
STARTCHAR 00C7
ENCODING 199
SWIDTH 521 0
DWIDTH 12 0
BBX 11 19 1 -5
BITMAP
07C0
1860
2000
6000
4000
C000
C000
C000
C000
C000
E000
6080
71C0
3E00
0800
0400
0E00
0600
1800
ENDCHAR
STARTCHAR 00C8
ENCODING 200
SWIDTH 478 0
DWIDTH 11 0
BBX 11 20 0 0
BITMAP
2000
3800
1C00
0600
0100
0000
FFC0
3040
3040
3000
3000
3000
3F80
3100
3000
3000
3000
3020
3060
FFC0
ENDCHAR
STARTCHAR 00C9
ENCODING 201
SWIDTH 478 0
DWIDTH 11 0
BBX 11 20 0 0
BITMAP
0100
0180
0700
0C00
0000
0000
FFC0
3040
3040
3000
3000
3000
3F80
3100
3000
3000
3000
3020
3060
FFC0
ENDCHAR
STARTCHAR 00CA
ENCODING 202
SWIDTH 478 0
DWIDTH 11 0
BBX 11 20 0 0
BITMAP
0400
0E00
1B00
3080
0000
0000
FFC0
3040
3040
3000
3000
3000
3F80
3100
3000
3000
3000
3020
3060
FFC0
ENDCHAR
STARTCHAR 00CB
ENCODING 203
SWIDTH 478 0
DWIDTH 11 0
BBX 11 18 0 0
BITMAP
1080
3180
3180
0000
FFC0
3040
3040
3000
3000
3000
3F80
3100
3000
3000
3000
3020
3060
FFC0
ENDCHAR
STARTCHAR 00CC
ENCODING 204
SWIDTH 304 0
DWIDTH 7 0
BBX 6 20 0 0
BITMAP
80
C0
70
18
00
00
FC
30
30
30
30
30
30
30
30
30
30
30
30
FC
ENDCHAR
STARTCHAR 00CD
ENCODING 205
SWIDTH 304 0
DWIDTH 7 0
BBX 7 20 0 0
BITMAP
04
0E
1C
30
40
00
FC
30
30
30
30
30
30
30
30
30
30
30
30
FC
ENDCHAR
STARTCHAR 00CE
ENCODING 206
SWIDTH 304 0
DWIDTH 7 0
BBX 7 20 0 0
BITMAP
10
38
6C
86
00
00
FC
30
30
30
30
30
30
30
30
30
30
30
30
FC
ENDCHAR
STARTCHAR 00CF
ENCODING 207
SWIDTH 304 0
DWIDTH 7 0
BBX 7 18 0 0
BITMAP
42
C6
C6
00
FC
30
30
30
30
30
30
30
30
30
30
30
30
FC
ENDCHAR
STARTCHAR 00D0
ENCODING 208
SWIDTH 608 0
DWIDTH 14 0
BBX 13 14 0 0
BITMAP
7F80
B0E0
3070
3030
3018
3018
FE18
3018
3018
3018
3030
3070
30E0
FF80
ENDCHAR
STARTCHAR 00D1
ENCODING 209
SWIDTH 652 0
DWIDTH 15 0
BBX 15 19 0 0
BITMAP
0220
0720
09C0
0000
0000
F07E
3018
3818
3C18
3418
3218
3318
3198
3098
30D8
3078
3038
3038
FC18
ENDCHAR
STARTCHAR 00D2
ENCODING 210
SWIDTH 608 0
DWIDTH 14 0
BBX 12 20 1 0
BITMAP
1000
3800
0C00
0200
0100
0000
0F80
30C0
2060
6060
C030
C030
C030
C030
C030
C030
6060
6040
3080
1F00
ENDCHAR
STARTCHAR 00D3
ENCODING 211
SWIDTH 608 0
DWIDTH 14 0
BBX 12 20 1 0
BITMAP
0100
01C0
0300
0C00
0000
0000
0F80
30C0
2060
6060
C030
C030
C030
C030
C030
C030
6060
6040
3080
1F00
ENDCHAR
STARTCHAR 00D4
ENCODING 212
SWIDTH 608 0
DWIDTH 14 0
BBX 12 20 1 0
BITMAP
0600
0E00
0B00
1080
2000
0000
0F80
30C0
2060
6060
C030
C030
C030
C030
C030
C030
6060
6040
3080
1F00
ENDCHAR
STARTCHAR 00D5
ENCODING 213
SWIDTH 608 0
DWIDTH 14 0
BBX 12 19 1 0
BITMAP
0880
1C40
3780
0000
0000
0F80
30C0
2060
6060
C030
C030
C030
C030
C030
C030
6060
6040
3080
1F00
ENDCHAR
STARTCHAR 00D6
ENCODING 214
SWIDTH 608 0
DWIDTH 14 0
BBX 12 18 1 0
BITMAP
1080
18C0
1080
0000
0F80
30C0
2060
6060
C030
C030
C030
C030
C030
C030
6060
6040
3080
1F00
ENDCHAR
STARTCHAR 00D7
ENCODING 215
SWIDTH 391 0
DWIDTH 9 0
BBX 7 7 1 3
BITMAP
C2
66
3C
18
3C
66
C2
ENDCHAR
STARTCHAR 00D8
ENCODING 216
SWIDTH 608 0
DWIDTH 14 0
BBX 12 15 1 -1
BITMAP
0F30
30E0
20E0
40E0
C1B0
C330
C230
C630
CC30
C830
5820
7040
7080
CF00
8000
ENDCHAR
STARTCHAR 00D9
ENCODING 217
SWIDTH 652 0
DWIDTH 15 0
BBX 15 20 0 0
BITMAP
0800
0E00
0700
0180
0040
0000
FC7E
3018
3018
3018
3018
3018
3018
3018
3018
3018
3018
1830
1C60
07C0
ENDCHAR
STARTCHAR 00DA
ENCODING 218
SWIDTH 652 0
DWIDTH 15 0
BBX 15 20 0 0
BITMAP
0040
0060
01C0
0300
0000
0000
FC7E
3018
3018
3018
3018
3018
3018
3018
3018
3018
3018
1830
1C60
07C0
ENDCHAR
STARTCHAR 00DB
ENCODING 219
SWIDTH 652 0
DWIDTH 15 0
BBX 15 20 0 0
BITMAP
0100
0380
06C0
0C60
0000
0000
FC7E
3018
3018
3018
3018
3018
3018
3018
3018
3018
3018
1830
1C60
07C0
ENDCHAR
STARTCHAR 00DC
ENCODING 220
SWIDTH 652 0
DWIDTH 15 0
BBX 15 18 0 0
BITMAP
0420
0C60
0C60
0000
FC7E
3018
3018
3018
3018
3018
3018
3018
3018
3018
3018
1830
1C60
07C0
ENDCHAR
STARTCHAR 00DD
ENCODING 221
SWIDTH 608 0
DWIDTH 14 0
BBX 14 20 0 0
BITMAP
0080
00E0
0180
0600
0000
0000
E07C
3030
1820
1860
0C40
06C0
0780
0300
0300
0300
0300
0300
0300
0FC0
ENDCHAR
STARTCHAR 00DE
ENCODING 222
SWIDTH 521 0
DWIDTH 12 0
BBX 11 14 0 0
BITMAP
FC00
3000
3000
3F80
30C0
3060
3060
3060
3060
30C0
3F80
3000
3000
FC00
ENDCHAR
STARTCHAR 00DF
ENCODING 223
SWIDTH 565 0
DWIDTH 13 0
BBX 13 17 0 0
BITMAP
0780
08C0
1060
3060
3060
30E0
33C0
3700
3600
3700
33C0
30F0
3038
3018
3418
3210
F3E0
ENDCHAR
STARTCHAR 00E0
ENCODING 224
SWIDTH 478 0
DWIDTH 11 0
BBX 10 17 1 0
BITMAP
6000
3000
1000
0800
0400
0000
0000
1E00
6300
C300
0300
1F00
6300
C300
C300
C700
7BC0
ENDCHAR
STARTCHAR 00E1
ENCODING 225
SWIDTH 478 0
DWIDTH 11 0
BBX 10 17 1 0
BITMAP
0300
0600
0C00
0800
1000
0000
0000
1E00
6300
C300
0300
1F00
6300
C300
C300
C700
7BC0
ENDCHAR
STARTCHAR 00E2
ENCODING 226
SWIDTH 478 0
DWIDTH 11 0
BBX 10 17 1 0
BITMAP
1800
1C00
3600
6200
4100
0000
0000
1E00
6300
C300
0300
1F00
6300
C300
C300
C700
7BC0
ENDCHAR
STARTCHAR 00E3
ENCODING 227
SWIDTH 478 0
DWIDTH 11 0
BBX 10 15 1 0
BITMAP
3900
4E00
0000
0000
0000
1E00
6300
C300
0300
1F00
6300
C300
C300
C700
7BC0
ENDCHAR
STARTCHAR 00E4
ENCODING 228
SWIDTH 478 0
DWIDTH 11 0
BBX 10 15 1 0
BITMAP
2100
6300
6300
0000
0000
1E00
6300
C300
0300
1F00
6300
C300
C300
C700
7BC0
ENDCHAR
STARTCHAR 00E5
ENCODING 229
SWIDTH 478 0
DWIDTH 11 0
BBX 10 16 1 0
BITMAP
1C00
3C00
3C00
1800
0000
0000
1E00
6300
C300
0300
1F00
6300
C300
C300
C700
7BC0
ENDCHAR
STARTCHAR 00E6
ENCODING 230
SWIDTH 695 0
DWIDTH 16 0
BBX 14 10 1 0
BITMAP
1E70
6398
C30C
830C
1FFC
7300
C300
C300
C584
78F8
ENDCHAR
STARTCHAR 00E7
ENCODING 231
SWIDTH 434 0
DWIDTH 10 0
BBX 9 15 1 -5
BITMAP
0F00
3180
6000
C000
C000
C000
C000
C000
6300
7C00
1000
0800
1C00
0C00
3000
ENDCHAR
STARTCHAR 00E8
ENCODING 232
SWIDTH 478 0
DWIDTH 11 0
BBX 9 17 1 0
BITMAP
3000
7000
1800
0800
0400
0000
0000
1E00
2100
4180
FF80
C000
C000
C000
E000
7180
3E00
ENDCHAR
STARTCHAR 00E9
ENCODING 233
SWIDTH 478 0
DWIDTH 11 0
BBX 9 17 1 0
BITMAP
0300
0600
0600
0C00
0800
0000
0000
1E00
2100
4180
FF80
C000
C000
C000
E000
7180
3E00
ENDCHAR
STARTCHAR 00EA
ENCODING 234
SWIDTH 478 0
DWIDTH 11 0
BBX 9 17 1 0
BITMAP
0C00
1C00
3600
2300
4100
0000
0000
1E00
2100
4180
FF80
C000
C000
C000
E000
7180
3E00
ENDCHAR
STARTCHAR 00EB
ENCODING 235
SWIDTH 478 0
DWIDTH 11 0
BBX 9 15 1 0
BITMAP
2100
3180
2100
0000
0000
1E00
2100
4180
FF80
C000
C000
C000
E000
7180
3E00
ENDCHAR
STARTCHAR 00EC
ENCODING 236
SWIDTH 260 0
DWIDTH 6 0
BBX 6 17 0 0
BITMAP
C0
60
20
30
10
00
00
30
F0
30
30
30
30
30
30
30
FC
ENDCHAR
STARTCHAR 00ED
ENCODING 237
SWIDTH 260 0
DWIDTH 6 0
BBX 7 17 0 0
BITMAP
0C
0E
18
10
20
00
00
30
F0
30
30
30
30
30
30
30
FC
ENDCHAR
STARTCHAR 00EE
ENCODING 238
SWIDTH 260 0
DWIDTH 6 0
BBX 7 17 0 0
BITMAP
30
38
68
C4
82
00
00
30
F0
30
30
30
30
30
30
30
FC
ENDCHAR
STARTCHAR 00EF
ENCODING 239
SWIDTH 260 0
DWIDTH 6 0
BBX 7 15 0 0
BITMAP
C6
C6
C6
00
00
30
F0
30
30
30
30
30
30
30
FC
ENDCHAR
STARTCHAR 00F0
ENCODING 240
SWIDTH 478 0
DWIDTH 11 0
BBX 9 16 1 0
BITMAP
3000
5B80
0C00
3200
0300
0100
1F80
6380
4380
C180
C180
C180
C100
E300
6200
3C00
ENDCHAR
STARTCHAR 00F1
ENCODING 241
SWIDTH 565 0
DWIDTH 13 0
BBX 13 15 0 0
BITMAP
0E40
1380
0000
0000
0000
71C0
B660
3860
3060
3060
3060
3060
3060
3060
FDF8
ENDCHAR
STARTCHAR 00F2
ENCODING 242
SWIDTH 521 0
DWIDTH 12 0
BBX 10 17 1 0
BITMAP
3000
3000
1800
0C00
0400
0000
0000
1E00
2380
4180
C0C0
C0C0
C0C0
C0C0
E080
7100
1E00
ENDCHAR
STARTCHAR 00F3
ENCODING 243
SWIDTH 521 0
DWIDTH 12 0
BBX 10 17 1 0
BITMAP
0300
0300
0600
0400
0800
0000
0000
1E00
2380
4180
C0C0
C0C0
C0C0
C0C0
E080
7100
1E00
ENDCHAR
STARTCHAR 00F4
ENCODING 244
SWIDTH 521 0
DWIDTH 12 0
BBX 10 17 1 0
BITMAP
0C00
1E00
1200
2100
4080
0000
0000
1E00
2380
4180
C0C0
C0C0
C0C0
C0C0
E080
7100
1E00
ENDCHAR
STARTCHAR 00F5
ENCODING 245
SWIDTH 521 0
DWIDTH 12 0
BBX 10 15 1 0
BITMAP
3880
4700
0000
0000
0000
1E00
2380
4180
C0C0
C0C0
C0C0
C0C0
E080
7100
1E00
ENDCHAR
STARTCHAR 00F6
ENCODING 246
SWIDTH 521 0
DWIDTH 12 0
BBX 10 15 1 0
BITMAP
3180
3180
2100
0000
0000
1E00
2380
4180
C0C0
C0C0
C0C0
C0C0
E080
7100
1E00
ENDCHAR
STARTCHAR 00F7
ENCODING 247
SWIDTH 391 0
DWIDTH 9 0
BBX 8 7 1 3
BITMAP
18
18
00
FF
00
18
18
ENDCHAR
STARTCHAR 00F8
ENCODING 248
SWIDTH 521 0
DWIDTH 12 0
BBX 10 12 1 -1
BITMAP
0040
1EC0
2380
43C0
C2C0
C4C0
C8C0
D8C0
F080
7100
DE00
8000
ENDCHAR
STARTCHAR 00F9
ENCODING 249
SWIDTH 521 0
DWIDTH 12 0
BBX 11 17 1 0
BITMAP
3000
1800
1800
0C00
0400
0000
0000
6180
E780
6180
6180
6180
6180
6180
6180
67A0
39C0
ENDCHAR
STARTCHAR 00FA
ENCODING 250
SWIDTH 521 0
DWIDTH 12 0
BBX 11 17 1 0
BITMAP
0300
0380
0600
0400
0800
0000
0000
6180
E780
6180
6180
6180
6180
6180
6180
67A0
39C0
ENDCHAR
STARTCHAR 00FB
ENCODING 251
SWIDTH 521 0
DWIDTH 12 0
BBX 11 17 1 0
BITMAP
0C00
0E00
1A00
3100
2080
0000
0000
6180
E780
6180
6180
6180
6180
6180
6180
67A0
39C0
ENDCHAR
STARTCHAR 00FC
ENCODING 252
SWIDTH 521 0
DWIDTH 12 0
BBX 11 15 1 0
BITMAP
3180
3180
3180
0000
0000
6180
E780
6180
6180
6180
6180
6180
6180
67A0
39C0
ENDCHAR
STARTCHAR 00FD
ENCODING 253
SWIDTH 478 0
DWIDTH 11 0
BBX 12 22 -1 -5
BITMAP
00C0
00C0
0180
0300
0200
0000
0000
7CF0
1020
1840
1840
0CC0
0C80
0480
0700
0300
0300
0200
0600
0400
7800
F000
ENDCHAR
STARTCHAR 00FE
ENCODING 254
SWIDTH 521 0
DWIDTH 12 0
BBX 11 22 0 -5
BITMAP
3000
F000
3000
3000
3000
3000
3000
3380
3CC0
38E0
3060
3060
3060
3060
3040
3880
3700
3000
3000
3000
3000
FC00
ENDCHAR
STARTCHAR 00FF
ENCODING 255
SWIDTH 478 0
DWIDTH 11 0
BBX 12 20 -1 -5
BITMAP
0C60
0C60
0840
0000
0000
7CF0
1020
1840
1840
0CC0
0C80
0480
0700
0300
0300
0200
0600
0400
7800
F000
ENDCHAR
STARTCHAR 0100
ENCODING 256
SWIDTH 608 0
DWIDTH 14 0
BBX 13 18 0 0
BITMAP
1FE0
0000
0000
0000
0200
0300
0500
0580
0580
0880
08C0
08C0
1FC0
1060
1060
2030
2030
F878
ENDCHAR
STARTCHAR 0101
ENCODING 257
SWIDTH 478 0
DWIDTH 11 0
BBX 10 14 1 0
BITMAP
7F00
0000
0000
0000
1E00
6300
C300
0300
1F00
6300
C300
C300
C700
7BC0
ENDCHAR
STARTCHAR 0102
ENCODING 258
SWIDTH 608 0
DWIDTH 14 0
BBX 13 20 0 0
BITMAP
1040
1040
0840
0780
0000
0000
0200
0300
0500
0580
0580
0880
08C0
08C0
1FC0
1060
1060
2030
2030
F878
ENDCHAR
STARTCHAR 0103
ENCODING 259
SWIDTH 478 0
DWIDTH 11 0
BBX 10 16 1 0
BITMAP
4100
4100
2200
1C00
0000
0000
1E00
6300
C300
0300
1F00
6300
C300
C300
C700
7BC0
ENDCHAR
STARTCHAR 0106
ENCODING 262
SWIDTH 521 0
DWIDTH 12 0
BBX 11 20 1 0
BITMAP
0100
01C0
0300
0C00
0000
0000
07C0
1860
2000
6000
4000
C000
C000
C000
C000
C000
6000
6020
3840
0F80
ENDCHAR
STARTCHAR 0107
ENCODING 263
SWIDTH 434 0
DWIDTH 10 0
BBX 9 17 1 0
BITMAP
0300
0600
0400
0800
1000
0000
0000
0F00
3180
6000
C000
C000
C000
C000
6000
7180
1E00
ENDCHAR
STARTCHAR 0108
ENCODING 264
SWIDTH 521 0
DWIDTH 12 0
BBX 11 20 1 0
BITMAP
0600
0E00
0B00
1080
2000
0000
07C0
1860
2000
6000
4000
C000
C000
C000
C000
C000
6000
6020
3840
0F80
ENDCHAR
STARTCHAR 0109
ENCODING 265
SWIDTH 434 0
DWIDTH 10 0
BBX 9 17 1 0
BITMAP
0800
1C00
3600
2200
4100
0000
0000
0F00
3180
6000
C000
C000
C000
C000
6000
7180
1E00
ENDCHAR
STARTCHAR 010A
ENCODING 266
SWIDTH 521 0
DWIDTH 12 0
BBX 11 18 1 0
BITMAP
0400
0600
0400
0000
07C0
1860
2000
6000
4000
C000
C000
C000
C000
C000
6000
6020
3840
0F80
ENDCHAR
STARTCHAR 010B
ENCODING 267
SWIDTH 434 0
DWIDTH 10 0
BBX 9 15 1 0
BITMAP
0800
1800
1800
0000
0000
0F00
3180
6000
C000
C000
C000
C000
6000
7180
1E00
ENDCHAR
STARTCHAR 010C
ENCODING 268
SWIDTH 521 0
DWIDTH 12 0
BBX 11 20 1 0
BITMAP
2080
1080
0F00
0600
0000
0000
07C0
1860
2000
6000
4000
C000
C000
C000
C000
C000
6000
6020
3840
0F80
ENDCHAR
STARTCHAR 010D
ENCODING 269
SWIDTH 434 0
DWIDTH 10 0
BBX 9 17 1 0
BITMAP
4100
2200
3600
1C00
0800
0000
0000
0F00
3180
6000
C000
C000
C000
C000
6000
7180
1E00
ENDCHAR
STARTCHAR 010E
ENCODING 270
SWIDTH 608 0
DWIDTH 14 0
BBX 13 20 0 0
BITMAP
2080
18C0
0D00
0700
0000
0000
7F80
B0E0
3070
3030
3018
3018
3018
3018
3018
3018
3030
3070
30E0
FF80
ENDCHAR
STARTCHAR 0110
ENCODING 272
SWIDTH 608 0
DWIDTH 14 0
BBX 13 14 0 0
BITMAP
7F80
B0E0
3070
3030
3018
3018
FE18
3018
3018
3018
3030
3070
30E0
FF80
ENDCHAR
STARTCHAR 0111
ENCODING 273
SWIDTH 521 0
DWIDTH 12 0
BBX 11 17 1 0
BITMAP
0380
0580
0180
0FE0
09C0
0180
0180
1F80
2380
4180
C180
C180
C180
C180
E180
67A0
39C0
ENDCHAR
STARTCHAR 0112
ENCODING 274
SWIDTH 478 0
DWIDTH 11 0
BBX 11 18 0 0
BITMAP
3F80
0040
0000
0000
FFC0
3040
3040
3000
3000
3000
3F80
3100
3000
3000
3000
3020
3060
FFC0
ENDCHAR
STARTCHAR 0113
ENCODING 275
SWIDTH 478 0
DWIDTH 11 0
BBX 9 14 1 0
BITMAP
7F80
0000
0000
0000
1E00
2100
4180
FF80
C000
C000
C000
E000
7180
3E00
ENDCHAR
STARTCHAR 0114
ENCODING 276
SWIDTH 478 0
DWIDTH 11 0
BBX 11 20 0 0
BITMAP
2080
2080
1080
1F00
0000
0000
FFC0
3040
3040
3000
3000
3000
3F80
3100
3000
3000
3000
3020
3060
FFC0
ENDCHAR
STARTCHAR 0115
ENCODING 277
SWIDTH 478 0
DWIDTH 11 0
BBX 9 16 1 0
BITMAP
4100
4100
2200
1C00
0000
0000
1E00
2100
4180
FF80
C000
C000
C000
E000
7180
3E00
ENDCHAR
STARTCHAR 0116
ENCODING 278
SWIDTH 478 0
DWIDTH 11 0
BBX 11 18 0 0
BITMAP
0400
0C00
0C00
0000
FFC0
3040
3040
3000
3000
3000
3F80
3100
3000
3000
3000
3020
3060
FFC0
ENDCHAR
STARTCHAR 0117
ENCODING 279
SWIDTH 478 0
DWIDTH 11 0
BBX 9 15 1 0
BITMAP
0800
0C00
0800
0000
0000
1E00
2100
4180
FF80
C000
C000
C000
E000
7180
3E00
ENDCHAR
STARTCHAR 011A
ENCODING 282
SWIDTH 478 0
DWIDTH 11 0
BBX 11 20 0 0
BITMAP
2080
1180
1B00
0E00
0000
0000
FFC0
3040
3040
3000
3000
3000
3F80
3100
3000
3000
3000
3020
3060
FFC0
ENDCHAR
STARTCHAR 011B
ENCODING 283
SWIDTH 478 0
DWIDTH 11 0
BBX 9 17 1 0
BITMAP
4100
2300
3600
1C00
0C00
0000
0000
1E00
2100
4180
FF80
C000
C000
C000
E000
7180
3E00
ENDCHAR
STARTCHAR 011C
ENCODING 284
SWIDTH 565 0
DWIDTH 13 0
BBX 11 20 1 0
BITMAP
0600
0700
0D80
1080
0040
0000
0F80
10C0
2000
6000
C000
C000
C000
C3E0
C0C0
C0C0
60C0
60C0
30C0
1F00
ENDCHAR
STARTCHAR 011D
ENCODING 285
SWIDTH 478 0
DWIDTH 11 0
BBX 12 22 0 -5
BITMAP
0600
0E00
1B00
1180
2080
0000
0000
1F30
31C0
60C0
60C0
60C0
3180
1F00
1800
3800
1FC0
6070
C030
C030
6060
3F80
ENDCHAR
STARTCHAR 011E
ENCODING 286
SWIDTH 565 0
DWIDTH 13 0
BBX 11 20 1 0
BITMAP
2080
1040
1080
0F00
0000
0000
0F80
10C0
2000
6000
C000
C000
C000
C3E0
C0C0
C0C0
60C0
60C0
30C0
1F00
ENDCHAR
STARTCHAR 011F
ENCODING 287
SWIDTH 478 0
DWIDTH 11 0
BBX 12 21 0 -5
BITMAP
2080
2080
1100
0E00
0000
0000
1F30
31C0
60C0
60C0
60C0
3180
1F00
1800
3800
1FC0
6070
C030
C030
6060
3F80
ENDCHAR
STARTCHAR 0120
ENCODING 288
SWIDTH 565 0
DWIDTH 13 0
BBX 11 18 1 0
BITMAP
0200
0600
0600
0000
0F80
10C0
2000
6000
C000
C000
C000
C3E0
C0C0
C0C0
60C0
60C0
30C0
1F00
ENDCHAR
STARTCHAR 0121
ENCODING 289
SWIDTH 478 0
DWIDTH 11 0
BBX 12 20 0 -5
BITMAP
0400
0C00
0400
0000
0000
1F30
31C0
60C0
60C0
60C0
3180
1F00
1800
3800
1FC0
6070
C030
C030
6060
3F80
ENDCHAR
STARTCHAR 0124
ENCODING 292
SWIDTH 652 0
DWIDTH 15 0
BBX 15 20 0 0
BITMAP
0100
0380
06C0
0C60
0000
0000
FC7E
3018
3018
3018
3018
3018
3FF8
3018
3018
3018
3018
3018
3018
FC7E
ENDCHAR
STARTCHAR 0125
ENCODING 293
SWIDTH 565 0
DWIDTH 13 0
BBX 13 22 0 0
BITMAP
0700
0D80
18C0
1040
0000
3000
F000
3000
3000
3000
3000
3000
33C0
3460
3860
3060
3060
3060
3060
3060
3060
FDF8
ENDCHAR
STARTCHAR 0128
ENCODING 296
SWIDTH 304 0
DWIDTH 7 0
BBX 8 19 -1 0
BITMAP
11
79
5E
80
00
7E
18
18
18
18
18
18
18
18
18
18
18
18
7E
ENDCHAR
STARTCHAR 0129
ENCODING 297
SWIDTH 260 0
DWIDTH 6 0
BBX 8 15 -1 0
BITMAP
39
CE
00
00
00
18
78
18
18
18
18
18
18
18
7E
ENDCHAR
STARTCHAR 012A
ENCODING 298
SWIDTH 304 0
DWIDTH 7 0
BBX 6 18 0 0
BITMAP
7C
00
00
00
FC
30
30
30
30
30
30
30
30
30
30
30
30
FC
ENDCHAR
STARTCHAR 012B
ENCODING 299
SWIDTH 260 0
DWIDTH 6 0
BBX 6 14 0 0
BITMAP
7C
80
00
00
30
F0
30
30
30
30
30
30
30
FC
ENDCHAR
STARTCHAR 012C
ENCODING 300
SWIDTH 304 0
DWIDTH 7 0
BBX 7 20 0 0
BITMAP
82
82
84
78
00
00
FC
30
30
30
30
30
30
30
30
30
30
30
30
FC
ENDCHAR
STARTCHAR 012D
ENCODING 301
SWIDTH 260 0
DWIDTH 6 0
BBX 7 16 0 0
BITMAP
82
84
44
38
00
00
30
F0
30
30
30
30
30
30
30
FC
ENDCHAR
STARTCHAR 0130
ENCODING 304
SWIDTH 304 0
DWIDTH 7 0
BBX 6 18 0 0
BITMAP
10
30
30
00
FC
30
30
30
30
30
30
30
30
30
30
30
30
FC
ENDCHAR
STARTCHAR 0131
ENCODING 305
SWIDTH 260 0
DWIDTH 6 0
BBX 6 10 0 0
BITMAP
30
F0
30
30
30
30
30
30
30
FC
ENDCHAR
STARTCHAR 0132
ENCODING 306
SWIDTH 608 0
DWIDTH 14 0
BBX 13 18 0 -4
BITMAP
FCF8
3030
3030
3030
3030
3030
3030
3030
3030
3030
3030
3030
3030
FC30
0020
0060
0440
0780
ENDCHAR
STARTCHAR 0133
ENCODING 307
SWIDTH 521 0
DWIDTH 12 0
BBX 10 20 0 -5
BITMAP
30C0
30C0
30C0
0000
0000
30C0
F1C0
30C0
30C0
30C0
30C0
30C0
30C0
30C0
78C0
84C0
00C0
0080
0100
1E00
ENDCHAR
STARTCHAR 0139
ENCODING 313
SWIDTH 478 0
DWIDTH 11 0
BBX 11 20 0 0
BITMAP
0100
0380
0700
0C00
1000
0000
FC00
3000
3000
3000
3000
3000
3000
3000
3000
3000
3000
3020
3040
FFC0
ENDCHAR
STARTCHAR 013A
ENCODING 314
SWIDTH 260 0
DWIDTH 6 0
BBX 7 23 0 0
BITMAP
06
1C
30
40
00
00
30
F0
30
30
30
30
30
30
30
30
30
30
30
30
30
30
FC
ENDCHAR
STARTCHAR 0141
ENCODING 321
SWIDTH 478 0
DWIDTH 11 0
BBX 11 14 0 0
BITMAP
FC00
3000
3000
3000
3000
3600
3800
7000
B000
3000
3000
3020
3040
FFC0
ENDCHAR
STARTCHAR 0142
ENCODING 322
SWIDTH 260 0
DWIDTH 6 0
BBX 6 17 0 0
BITMAP
30
F0
30
30
30
30
34
38
30
F0
B0
30
30
30
30
30
FC
ENDCHAR
STARTCHAR 0143
ENCODING 323
SWIDTH 652 0
DWIDTH 15 0
BBX 15 20 0 0
BITMAP
0040
00E0
01C0
0300
0400
0000
F07E
3018
3818
3C18
3418
3218
3318
3198
3098
30D8
3078
3038
3038
FC18
ENDCHAR
STARTCHAR 0144
ENCODING 324
SWIDTH 565 0
DWIDTH 13 0
BBX 13 17 0 0
BITMAP
00C0
0180
0100
0200
0400
0000
0000
71C0
B660
3860
3060
3060
3060
3060
3060
3060
FDF8
ENDCHAR
STARTCHAR 0147
ENCODING 327
SWIDTH 652 0
DWIDTH 15 0
BBX 15 20 0 0
BITMAP
0820
0C60
06C0
0380
0000
0000
F07E
3018
3818
3C18
3418
3218
3318
3198
3098
30D8
3078
3038
3038
FC18
ENDCHAR
STARTCHAR 0148
ENCODING 328
SWIDTH 565 0
DWIDTH 13 0
BBX 13 17 0 0
BITMAP
1040
0880
0D80
0700
0200
0000
0000
71C0
B660
3860
3060
3060
3060
3060
3060
3060
FDF8
ENDCHAR
STARTCHAR 014A
ENCODING 330
SWIDTH 608 0
DWIDTH 14 0
BBX 13 18 0 -4
BITMAP
30F0
F338
3418
3818
3818
3018
3018
3018
3018
3018
3018
3018
3018
7C18
8010
0020
0C60
0F80
ENDCHAR
STARTCHAR 014B
ENCODING 331
SWIDTH 565 0
DWIDTH 13 0
BBX 11 15 0 -5
BITMAP
71C0
B660
3860
3060
3060
3060
3060
3060
3060
7860
8460
0060
0040
0880
1F00
ENDCHAR
STARTCHAR 014C
ENCODING 332
SWIDTH 608 0
DWIDTH 14 0
BBX 12 18 1 0
BITMAP
1FC0
2000
0000
0000
0F80
30C0
2060
6060
C030
C030
C030
C030
C030
C030
6060
6040
3080
1F00
ENDCHAR
STARTCHAR 014D
ENCODING 333
SWIDTH 521 0
DWIDTH 12 0
BBX 10 14 1 0
BITMAP
7F80
0000
0000
0000
1E00
2380
4180
C0C0
C0C0
C0C0
C0C0
E080
7100
1E00
ENDCHAR
STARTCHAR 014E
ENCODING 334
SWIDTH 608 0
DWIDTH 14 0
BBX 12 20 1 0
BITMAP
2080
20C0
1080
0F00
0000
0000
0F80
30C0
2060
6060
C030
C030
C030
C030
C030
C030
6060
6040
3080
1F00
ENDCHAR
STARTCHAR 014F
ENCODING 335
SWIDTH 521 0
DWIDTH 12 0
BBX 10 16 1 0
BITMAP
4080
2100
3300
1E00
0000
0000
1E00
2380
4180
C0C0
C0C0
C0C0
C0C0
E080
7100
1E00
ENDCHAR
STARTCHAR 0150
ENCODING 336
SWIDTH 608 0
DWIDTH 14 0
BBX 12 21 1 0
BITMAP
0480
06C0
0480
0980
0900
1000
0000
0F80
30C0
2060
6060
C030
C030
C030
C030
C030
C030
6060
6040
3080
1F00
ENDCHAR
STARTCHAR 0151
ENCODING 337
SWIDTH 521 0
DWIDTH 12 0
BBX 10 17 1 0
BITMAP
0C80
0D80
1900
1200
1200
0000
0000
1E00
2380
4180
C0C0
C0C0
C0C0
C0C0
E080
7100
1E00
ENDCHAR
STARTCHAR 0152
ENCODING 338
SWIDTH 782 0
DWIDTH 18 0
BBX 17 14 1 0
BITMAP
0FFF80
106080
206080
606000
406000
C06000
C07E00
C06400
C06000
C06000
606000
606080
306080
0FFF80
ENDCHAR
STARTCHAR 0153
ENCODING 339
SWIDTH 782 0
DWIDTH 18 0
BBX 17 10 1 0
BITMAP
1E1C00
23A600
61C300
C0C300
C0FF00
C0C000
C0C000
60E000
616180
3E1E00
ENDCHAR
STARTCHAR 0154
ENCODING 340
SWIDTH 565 0
DWIDTH 13 0
BBX 13 20 0 0
BITMAP
0100
01C0
0300
0C00
0000
0000
7F00
B180
30C0
30C0
30C0
3080
3100
3E00
3300
3100
3180
30C0
30C0
FC78
ENDCHAR
STARTCHAR 0155
ENCODING 341
SWIDTH 391 0
DWIDTH 9 0
BBX 9 17 0 0
BITMAP
0300
0300
0600
0400
0800
0000
0000
3380
FC80
3800
3000
3000
3000
3000
3000
3000
FC00
ENDCHAR
STARTCHAR 0158
ENCODING 344
SWIDTH 565 0
DWIDTH 13 0
BBX 13 20 0 0
BITMAP
2080
1080
0F00
0E00
0000
0000
7F00
B180
30C0
30C0
30C0
3080
3100
3E00
3300
3100
3180
30C0
30C0
FC78
ENDCHAR
STARTCHAR 0159
ENCODING 345
SWIDTH 391 0
DWIDTH 9 0
BBX 9 17 0 0
BITMAP
2080
7100
1E00
1E00
0C00
0000
0000
3380
FC80
3800
3000
3000
3000
3000
3000
3000
FC00
ENDCHAR
STARTCHAR 015A
ENCODING 346
SWIDTH 478 0
DWIDTH 11 0
BBX 9 20 1 0
BITMAP
0200
0300
0E00
1800
0000
0000
3E00
6300
C000
C000
E000
7800
3E00
0F00
0380
0180
8180
8100
C300
7C00
ENDCHAR
STARTCHAR 015B
ENCODING 347
SWIDTH 391 0
DWIDTH 9 0
BBX 7 17 1 0
BITMAP
06
0C
08
10
20
00
00
7C
CC
C0
E0
78
1E
06
86
86
F8
ENDCHAR
STARTCHAR 015C
ENCODING 348
SWIDTH 478 0
DWIDTH 11 0
BBX 9 20 1 0
BITMAP
0800
1C00
3600
6300
0000
0000
3E00
6300
C000
C000
E000
7800
3E00
0F00
0380
0180
8180
8100
C300
7C00
ENDCHAR
STARTCHAR 015D
ENCODING 349
SWIDTH 391 0
DWIDTH 9 0
BBX 7 17 1 0
BITMAP
10
38
6C
44
82
00
00
7C
CC
C0
E0
78
1E
06
86
86
F8
ENDCHAR
STARTCHAR 0160
ENCODING 352
SWIDTH 478 0
DWIDTH 11 0
BBX 9 20 1 0
BITMAP
4100
2300
3600
1C00
0000
0000
3E00
6300
C000
C000
E000
7800
3E00
0F00
0380
0180
8180
8100
C300
7C00
ENDCHAR
STARTCHAR 0161
ENCODING 353
SWIDTH 391 0
DWIDTH 9 0
BBX 7 17 1 0
BITMAP
82
44
6C
38
10
00
00
7C
CC
C0
E0
78
1E
06
86
86
F8
ENDCHAR
STARTCHAR 0164
ENCODING 356
SWIDTH 565 0
DWIDTH 13 0
BBX 12 20 0 0
BITMAP
2080
18C0
0D00
0700
0000
0000
FFF0
8610
8610
0600
0600
0600
0600
0600
0600
0600
0600
0600
0600
1F80
ENDCHAR
STARTCHAR 0168
ENCODING 360
SWIDTH 652 0
DWIDTH 15 0
BBX 15 19 0 0
BITMAP
0220
0720
09E0
0000
0000
FC7E
3018
3018
3018
3018
3018
3018
3018
3018
3018
3018
1830
1C60
07C0
ENDCHAR
STARTCHAR 0169
ENCODING 361
SWIDTH 521 0
DWIDTH 12 0
BBX 11 15 1 0
BITMAP
1C80
6700
0000
0000
0000
6180
E780
6180
6180
6180
6180
6180
6180
67A0
39C0
ENDCHAR
STARTCHAR 016A
ENCODING 362
SWIDTH 652 0
DWIDTH 15 0
BBX 15 18 0 0
BITMAP
0FE0
0010
0000
0000
FC7E
3018
3018
3018
3018
3018
3018
3018
3018
3018
3018
1830
1C60
07C0
ENDCHAR
STARTCHAR 016B
ENCODING 363
SWIDTH 521 0
DWIDTH 12 0
BBX 11 14 1 0
BITMAP
3F80
4000
0000
0000
6180
E780
6180
6180
6180
6180
6180
6180
67A0
39C0
ENDCHAR
STARTCHAR 016C
ENCODING 364
SWIDTH 652 0
DWIDTH 15 0
BBX 15 20 0 0
BITMAP
0820
0820
0420
07C0
0000
0000
FC7E
3018
3018
3018
3018
3018
3018
3018
3018
3018
3018
1830
1C60
07C0
ENDCHAR
STARTCHAR 016D
ENCODING 365
SWIDTH 521 0
DWIDTH 12 0
BBX 11 16 1 0
BITMAP
4080
2100
3100
1E00
0000
0000
6180
E780
6180
6180
6180
6180
6180
6180
67A0
39C0
ENDCHAR
STARTCHAR 016E
ENCODING 366
SWIDTH 652 0
DWIDTH 15 0
BBX 15 20 0 0
BITMAP
0100
0380
0780
0380
0000
0000
FC7E
3018
3018
3018
3018
3018
3018
3018
3018
3018
3018
1830
1C60
07C0
ENDCHAR
STARTCHAR 016F
ENCODING 367
SWIDTH 521 0
DWIDTH 12 0
BBX 11 16 1 0
BITMAP
0C00
1E00
1E00
1C00
0000
0000
6180
E780
6180
6180
6180
6180
6180
6180
67A0
39C0
ENDCHAR
STARTCHAR 0170
ENCODING 368
SWIDTH 652 0
DWIDTH 15 0
BBX 15 21 0 0
BITMAP
0120
01B0
0360
0240
0440
0080
0000
FC7E
3018
3018
3018
3018
3018
3018
3018
3018
3018
3018
1830
1C60
07C0
ENDCHAR
STARTCHAR 0171
ENCODING 369
SWIDTH 521 0
DWIDTH 12 0
BBX 11 17 1 0
BITMAP
0C80
0D80
0900
1300
1200
0000
0000
6180
E780
6180
6180
6180
6180
6180
6180
67A0
39C0
ENDCHAR
STARTCHAR 0174
ENCODING 372
SWIDTH 869 0
DWIDTH 20 0
BBX 19 20 0 0
BITMAP
004000
00E000
01B000
030800
000000
000000
F843E0
306080
306080
30E080
10B180
10B100
199100
191900
191900
0B0B00
0E0E00
0E0E00
0E0600
040600
ENDCHAR
STARTCHAR 0175
ENCODING 373
SWIDTH 695 0
DWIDTH 16 0
BBX 16 17 0 0
BITMAP
0180
01C0
0360
0220
0410
0000
0000
F88F
2182
31C4
31C4
1364
1A6C
1A28
0C38
0C38
0C10
ENDCHAR
STARTCHAR 0176
ENCODING 374
SWIDTH 608 0
DWIDTH 14 0
BBX 14 20 0 0
BITMAP
0200
0700
0D80
0840
1000
0000
E07C
3030
1820
1860
0C40
06C0
0780
0300
0300
0300
0300
0300
0300
0FC0
ENDCHAR
STARTCHAR 0177
ENCODING 375
SWIDTH 478 0
DWIDTH 11 0
BBX 12 22 -1 -5
BITMAP
0300
0780
0580
08C0
1060
0000
0000
7CF0
1020
1840
1840
0CC0
0C80
0480
0700
0300
0300
0200
0600
0400
7800
F000
ENDCHAR
STARTCHAR 0178
ENCODING 376
SWIDTH 608 0
DWIDTH 14 0
BBX 14 18 0 0
BITMAP
0840
0C60
0840
0000
E07C
3030
1820
1860
0C40
06C0
0780
0300
0300
0300
0300
0300
0300
0FC0
ENDCHAR
STARTCHAR 0179
ENCODING 377
SWIDTH 521 0
DWIDTH 12 0
BBX 10 20 1 0
BITMAP
0100
0380
0600
0C00
1000
0000
7FC0
4180
8180
0300
0600
0600
0C00
1C00
1800
3000
3000
6040
C040
FFC0
ENDCHAR
STARTCHAR 017A
ENCODING 378
SWIDTH 434 0
DWIDTH 10 0
BBX 8 17 1 0
BITMAP
03
06
0C
08
10
00
00
FF
83
86
0C
08
18
30
61
41
FF
ENDCHAR
STARTCHAR 017B
ENCODING 379
SWIDTH 521 0
DWIDTH 12 0
BBX 10 18 1 0
BITMAP
0400
0C00
0C00
0000
7FC0
4180
8180
0300
0600
0600
0C00
1C00
1800
3000
3000
6040
C040
FFC0
ENDCHAR
STARTCHAR 017C
ENCODING 380
SWIDTH 434 0
DWIDTH 10 0
BBX 8 15 1 0
BITMAP
08
18
18
00
00
FF
83
86
0C
08
18
30
61
41
FF
ENDCHAR
STARTCHAR 017D
ENCODING 381
SWIDTH 521 0
DWIDTH 12 0
BBX 10 20 1 0
BITMAP
4100
3180
1A00
0E00
0000
0000
7FC0
4180
8180
0300
0600
0600
0C00
1C00
1800
3000
3000
6040
C040
FFC0
ENDCHAR
STARTCHAR 017E
ENCODING 382
SWIDTH 434 0
DWIDTH 10 0
BBX 8 17 1 0
BITMAP
41
62
36
1C
18
00
00
FF
83
86
0C
08
18
30
61
41
FF
ENDCHAR
STARTCHAR 0181
ENCODING 385
SWIDTH 652 0
DWIDTH 15 0
BBX 14 14 0 0
BITMAP
1FE0
6638
C618
C618
E618
0630
07F0
0638
061C
060C
060C
060C
0618
1FF0
ENDCHAR
STARTCHAR 0186
ENCODING 390
SWIDTH 521 0
DWIDTH 12 0
BBX 10 14 1 0
BITMAP
3E00
C300
0180
0180
00C0
00C0
00C0
00C0
20C0
C0C0
C080
C180
E300
3C00
ENDCHAR
STARTCHAR 0189
ENCODING 393
SWIDTH 608 0
DWIDTH 14 0
BBX 13 14 0 0
BITMAP
7F80
B0E0
3070
3030
3018
3018
FE18
3018
3018
3018
3030
3070
30E0
FF80
ENDCHAR
STARTCHAR 018A
ENCODING 394
SWIDTH 695 0
DWIDTH 16 0
BBX 15 14 0 0
BITMAP
1FE0
6638
C60C
C60C
6606
0606
0606
0606
0606
0606
060C
060C
0618
1FE0
ENDCHAR
STARTCHAR 018E
ENCODING 398
SWIDTH 478 0
DWIDTH 11 0
BBX 11 14 0 0
BITMAP
3FE0
6180
4180
0180
0180
0180
3F80
0180
0180
0180
4180
4180
4180
FFE0
ENDCHAR
STARTCHAR 0190
ENCODING 400
SWIDTH 521 0
DWIDTH 12 0
BBX 10 14 1 0
BITMAP
1F80
21C0
4000
C000
C000
F000
7C00
7000
E000
C000
C000
C040
6080
3F00
ENDCHAR
STARTCHAR 0192
ENCODING 402
SWIDTH 304 0
DWIDTH 7 0
BBX 12 22 -3 -5
BITMAP
00F0
0130
0200
0600
0600
0600
0600
0FC0
1600
0600
0600
0600
0600
0600
0600
0600
0600
0600
0600
0400
0800
F000
ENDCHAR
STARTCHAR 0197
ENCODING 407
SWIDTH 304 0
DWIDTH 7 0
BBX 6 14 0 0
BITMAP
FC
30
30
30
30
30
FC
30
30
30
30
30
30
FC
ENDCHAR
STARTCHAR 0198
ENCODING 408
SWIDTH 608 0
DWIDTH 14 0
BBX 13 14 0 0
BITMAP
FC70
3098
3118
3218
3600
3400
3C00
3C00
3600
3300
3180
31C0
30C0
FC70
ENDCHAR
STARTCHAR 0199
ENCODING 409
SWIDTH 521 0
DWIDTH 12 0
BBX 12 17 0 0
BITMAP
03C0
0CC0
1800
1000
3000
3000
3000
31E0
3180
3300
3400
3C00
3600
3300
3180
31C0
F8F0
ENDCHAR
STARTCHAR 019A
ENCODING 410
SWIDTH 304 0
DWIDTH 7 0
BBX 6 17 1 0
BITMAP
30
F0
30
30
30
30
30
30
FC
30
30
30
30
30
30
30
FC
ENDCHAR
STARTCHAR 019D
ENCODING 413
SWIDTH 652 0
DWIDTH 15 0
BBX 18 18 -3 -4
BITMAP
1E0FC0
060300
070300
078300
068300
064300
066300
062300
061300
061B00
060F00
060700
060700
060300
060000
040000
480000
F00000
ENDCHAR
STARTCHAR 019F
ENCODING 415
SWIDTH 608 0
DWIDTH 14 0
BBX 12 14 1 0
BITMAP
0F80
30C0
2060
6060
C030
C030
FFF0
C030
C030
C030
6060
6040
3080
1F00
ENDCHAR
STARTCHAR 01A0
ENCODING 416
SWIDTH 652 0
DWIDTH 15 0
BBX 13 17 1 0
BITMAP
0018
0038
0010
0FA0
30E0
2060
6070
C030
C030
C030
C030
C030
C020
6060
6040
3080
1F00
ENDCHAR
STARTCHAR 01A1
ENCODING 417
SWIDTH 608 0
DWIDTH 14 0
BBX 12 13 1 0
BITMAP
0030
0070
0020
1F40
2380
41C0
C0C0
C0C0
C0C0
C0C0
E080
7100
1E00
ENDCHAR
STARTCHAR 01A9
ENCODING 425
SWIDTH 521 0
DWIDTH 12 0
BBX 10 14 1 0
BITMAP
FFC0
6040
7040
3000
1800
0C00
0C00
0C00
1800
1000
3000
6040
C040
FFC0
ENDCHAR
STARTCHAR 01AA
ENCODING 426
SWIDTH 347 0
DWIDTH 8 0
BBX 11 22 0 -5
BITMAP
3800
4C00
CC00
CC00
7C00
0C00
0C00
0C00
0C00
0C00
0C00
0C00
0C00
0C00
0C00
0C00
0C00
0C00
0C00
0C60
0660
0380
ENDCHAR
STARTCHAR 01AF
ENCODING 431
SWIDTH 695 0
DWIDTH 16 0
BBX 16 17 0 0
BITMAP
0003
0007
0002
FC7C
3018
3018
3018
3018
3018
3018
3018
3018
3018
3018
1830
1C60
07C0
ENDCHAR
STARTCHAR 01B0
ENCODING 432
SWIDTH 608 0
DWIDTH 14 0
BBX 13 13 1 0
BITMAP
0018
0038
2190
E7A0
61C0
6180
6180
6180
6180
6180
6180
67A0
39C0
ENDCHAR
STARTCHAR 01B3
ENCODING 435
SWIDTH 695 0
DWIDTH 16 0
BBX 17 14 0 0
BITMAP
E00F00
301980
183180
186100
0C4000
06C000
078000
030000
030000
030000
030000
030000
030000
0FC000
ENDCHAR
STARTCHAR 01B4
ENCODING 436
SWIDTH 478 0
DWIDTH 11 0
BBX 17 19 -1 -5
BITMAP
000780
000800
001000
002000
7C2000
104000
184000
184000
0C8000
0C8000
068000
070000
070000
020000
020000
020000
040000
080000
F00000
ENDCHAR
STARTCHAR 01B7
ENCODING 439
SWIDTH 521 0
DWIDTH 12 0
BBX 10 14 1 0
BITMAP
FF80
8300
8600
0E00
1C00
1F00
2380
01C0
00C0
00C0
00C0
4080
E100
7E00
ENDCHAR
STARTCHAR 01CD
ENCODING 461
SWIDTH 608 0
DWIDTH 14 0
BBX 13 20 0 0
BITMAP
1040
08C0
0580
0700
0000
0000
0200
0300
0500
0580
0580
0880
08C0
08C0
1FC0
1060
1060
2030
2030
F878
ENDCHAR
STARTCHAR 01CE
ENCODING 462
SWIDTH 478 0
DWIDTH 11 0
BBX 10 17 1 0
BITMAP
4100
6200
3600
1C00
1800
0000
0000
1E00
6300
C300
0300
1F00
6300
C300
C300
C700
7BC0
ENDCHAR
STARTCHAR 01CF
ENCODING 463
SWIDTH 304 0
DWIDTH 7 0
BBX 7 20 0 0
BITMAP
82
C4
6C
38
00
00
FC
30
30
30
30
30
30
30
30
30
30
30
30
FC
ENDCHAR
STARTCHAR 01D0
ENCODING 464
SWIDTH 260 0
DWIDTH 6 0
BBX 7 17 0 0
BITMAP
82
C4
68
38
30
00
00
30
F0
30
30
30
30
30
30
30
FC
ENDCHAR
STARTCHAR 01D1
ENCODING 465
SWIDTH 608 0
DWIDTH 14 0
BBX 12 21 1 0
BITMAP
2080
1080
1900
0F00
0600
0000
0000
0F80
30C0
2060
6060
C030
C030
C030
C030
C030
C030
6060
6040
3080
1F00
ENDCHAR
STARTCHAR 01D2
ENCODING 466
SWIDTH 521 0
DWIDTH 12 0
BBX 10 17 1 0
BITMAP
2080
7300
1E00
1E00
0C00
0000
0000
1E00
2380
4180
C0C0
C0C0
C0C0
C0C0
E080
7100
1E00
ENDCHAR
STARTCHAR 01D3
ENCODING 467
SWIDTH 652 0
DWIDTH 15 0
BBX 15 20 0 0
BITMAP
0820
0460
06C0
0380
0000
0000
FC7E
3018
3018
3018
3018
3018
3018
3018
3018
3018
3018
1830
1C60
07C0
ENDCHAR
STARTCHAR 01D4
ENCODING 468
SWIDTH 521 0
DWIDTH 12 0
BBX 11 17 1 0
BITMAP
2080
3100
1E00
0E00
0C00
0000
0000
6180
E780
6180
6180
6180
6180
6180
6180
67A0
39C0
ENDCHAR
STARTCHAR 01D5
ENCODING 469
SWIDTH 652 0
DWIDTH 15 0
BBX 15 21 0 0
BITMAP
0FF0
0000
0000
0420
0C60
0C60
0000
FC7E
3018
3018
3018
3018
3018
3018
3018
3018
3018
3018
1830
1C60
07C0
ENDCHAR
STARTCHAR 01D6
ENCODING 470
SWIDTH 521 0
DWIDTH 12 0
BBX 11 18 1 0
BITMAP
3F80
4000
0000
3180
3180
3180
0000
0000
6180
E780
6180
6180
6180
6180
6180
6180
67A0
39C0
ENDCHAR
STARTCHAR 01D7
ENCODING 471
SWIDTH 652 0
DWIDTH 15 0
BBX 15 23 0 0
BITMAP
0060
00E0
0180
0200
0000
0420
0C60
0C60
0000
FC7E
3018
3018
3018
3018
3018
3018
3018
3018
3018
3018
1830
1C60
07C0
ENDCHAR
STARTCHAR 01D8
ENCODING 472
SWIDTH 521 0
DWIDTH 12 0
BBX 11 21 1 0
BITMAP
0300
0380
0600
0400
0800
0000
3180
3180
3180
0000
0000
6180
E780
6180
6180
6180
6180
6180
6180
67A0
39C0
ENDCHAR
STARTCHAR 01D9
ENCODING 473
SWIDTH 652 0
DWIDTH 15 0
BBX 15 23 0 0
BITMAP
0820
0640
0380
0100
0000
0420
0C60
0C60
0000
FC7E
3018
3018
3018
3018
3018
3018
3018
3018
3018
3018
1830
1C60
07C0
ENDCHAR
STARTCHAR 01DA
ENCODING 474
SWIDTH 521 0
DWIDTH 12 0
BBX 11 21 1 0
BITMAP
2080
3100
1E00
0E00
0C00
0000
3180
3180
3180
0000
0000
6180
E780
6180
6180
6180
6180
6180
6180
67A0
39C0
ENDCHAR
STARTCHAR 01DB
ENCODING 475
SWIDTH 652 0
DWIDTH 15 0
BBX 15 23 0 0
BITMAP
0C00
0600
0180
00C0
0000
0420
0C60
0C60
0000
FC7E
3018
3018
3018
3018
3018
3018
3018
3018
3018
3018
1830
1C60
07C0
ENDCHAR
STARTCHAR 01DC
ENCODING 476
SWIDTH 521 0
DWIDTH 12 0
BBX 11 21 1 0
BITMAP
3000
1800
1800
0C00
0400
0000
3180
3180
3180
0000
0000
6180
E780
6180
6180
6180
6180
6180
6180
67A0
39C0
ENDCHAR
STARTCHAR 01DD
ENCODING 477
SWIDTH 434 0
DWIDTH 10 0
BBX 8 10 1 0
BITMAP
3C
C6
07
03
03
7F
C3
C2
E4
78
ENDCHAR
STARTCHAR 01DE
ENCODING 478
SWIDTH 608 0
DWIDTH 14 0
BBX 13 21 0 0
BITMAP
1FE0
0000
0000
0840
0C60
0840
0000
0200
0300
0500
0580
0580
0880
08C0
08C0
1FC0
1060
1060
2030
2030
F878
ENDCHAR
STARTCHAR 01DF
ENCODING 479
SWIDTH 478 0
DWIDTH 11 0
BBX 10 18 1 0
BITMAP
7F00
0000
0000
2100
6300
6300
0000
0000
1E00
6300
C300
0300
1F00
6300
C300
C300
C700
7BC0
ENDCHAR
STARTCHAR 01E0
ENCODING 480
SWIDTH 608 0
DWIDTH 14 0
BBX 13 21 0 0
BITMAP
1FE0
0000
0000
0200
0300
0200
0000
0200
0300
0500
0580
0580
0880
08C0
08C0
1FC0
1060
1060
2030
2030
F878
ENDCHAR
STARTCHAR 01E1
ENCODING 481
SWIDTH 478 0
DWIDTH 11 0
BBX 10 18 1 0
BITMAP
7F00
0000
0000
0800
1800
1800
0000
0000
1E00
6300
C300
0300
1F00
6300
C300
C300
C700
7BC0
ENDCHAR
STARTCHAR 01E2
ENCODING 482
SWIDTH 782 0
DWIDTH 18 0
BBX 18 18 0 0
BITMAP
01FC00
000000
000000
000000
07FF80
016080
036080
026000
066000
066000
07FF00
0C6200
086000
186000
106000
106040
306040
F9FF80
ENDCHAR
STARTCHAR 01E3
ENCODING 483
SWIDTH 695 0
DWIDTH 16 0
BBX 14 14 1 0
BITMAP
0FE0
0000
0000
0000
1E70
6398
C30C
830C
1FFC
7300
C300
C300
C584
78F8
ENDCHAR
STARTCHAR 01E6
ENCODING 486
SWIDTH 565 0
DWIDTH 13 0
BBX 11 20 1 0
BITMAP
2080
18C0
0D00
0700
0000
0000
0F80
10C0
2000
6000
C000
C000
C000
C3E0
C0C0
C0C0
60C0
60C0
30C0
1F00
ENDCHAR
STARTCHAR 01E7
ENCODING 487
SWIDTH 478 0
DWIDTH 11 0
BBX 12 22 0 -5
BITMAP
2080
1180
1B00
0E00
0600
0000
0000
1F30
31C0
60C0
60C0
60C0
3180
1F00
1800
3800
1FC0
6070
C030
C030
6060
3F80
ENDCHAR
STARTCHAR 01E8
ENCODING 488
SWIDTH 565 0
DWIDTH 13 0
BBX 13 20 0 0
BITMAP
1040
08C0
0D80
0700
0000
0000
FCF0
3040
3080
3100
3200
3600
3C00
3600
3600
3300
3180
30C0
3060
FC38
ENDCHAR
STARTCHAR 01E9
ENCODING 489
SWIDTH 521 0
DWIDTH 12 0
BBX 12 22 0 0
BITMAP
30C0
0900
0700
0600
0000
3000
F000
3000
3000
3000
3000
3000
31E0
3180
3300
3400
3C00
3600
3300
3180
30C0
F8F0
ENDCHAR
STARTCHAR 01EE
ENCODING 494
SWIDTH 521 0
DWIDTH 12 0
BBX 10 21 1 0
BITMAP
4100
2180
3300
1E00
0C00
0000
0000
FF80
8300
8600
0E00
1C00
1F00
2380
01C0
00C0
00C0
00C0
4080
E100
7E00
ENDCHAR
STARTCHAR 01EF
ENCODING 495
SWIDTH 434 0
DWIDTH 10 0
BBX 9 21 1 -5
BITMAP
C300
6600
3C00
1800
0000
0000
FF00
8700
8600
0C00
1800
3000
7E00
0700
0380
0180
0180
0180
8100
C200
7C00
ENDCHAR
STARTCHAR 01F4
ENCODING 500
SWIDTH 565 0
DWIDTH 13 0
BBX 11 20 1 0
BITMAP
0080
01C0
0300
0400
0800
0000
0F80
10C0
2000
6000
C000
C000
C000
C3E0
C0C0
C0C0
60C0
60C0
30C0
1F00
ENDCHAR
STARTCHAR 01F5
ENCODING 501
SWIDTH 478 0
DWIDTH 11 0
BBX 12 22 0 -5
BITMAP
0180
0300
0200
0400
0400
0800
0000
1F30
31C0
60C0
60C0
60C0
3180
1F00
1800
3800
1FC0
6070
C030
C030
6060
3F80
ENDCHAR
STARTCHAR 01F8
ENCODING 504
SWIDTH 652 0
DWIDTH 15 0
BBX 15 20 0 0
BITMAP
0800
0C00
0700
0180
0000
0000
F07E
3018
3818
3C18
3418
3218
3318
3198
3098
30D8
3078
3038
3038
FC18
ENDCHAR
STARTCHAR 01F9
ENCODING 505
SWIDTH 565 0
DWIDTH 13 0
BBX 13 17 0 0
BITMAP
1800
0C00
0600
0200
0100
0000
0000
71C0
B660
3860
3060
3060
3060
3060
3060
3060
FDF8
ENDCHAR
STARTCHAR 01FA
ENCODING 506
SWIDTH 608 0
DWIDTH 14 0
BBX 13 25 0 0
BITMAP
0080
00C0
01A0
0600
0000
0200
0700
0780
0700
0000
0000
0200
0300
0500
0580
0580
0880
08C0
08C0
1FC0
1060
1060
2030
2030
F878
ENDCHAR
STARTCHAR 01FB
ENCODING 507
SWIDTH 478 0
DWIDTH 11 0
BBX 10 22 1 0
BITMAP
0300
0600
0400
0800
1000
0000
1C00
3C00
3C00
1800
0000
0000
1E00
6300
C300
0300
1F00
6300
C300
C300
C700
7BC0
ENDCHAR
STARTCHAR 01FC
ENCODING 508
SWIDTH 782 0
DWIDTH 18 0
BBX 18 20 0 0
BITMAP
000800
001C00
003800
006000
008000
000000
07FF80
016080
036080
026000
066000
066000
07FF00
0C6200
086000
186000
106000
106040
306040
F9FF80
ENDCHAR
STARTCHAR 01FD
ENCODING 509
SWIDTH 695 0
DWIDTH 16 0
BBX 14 17 1 0
BITMAP
0060
00C0
0180
0100
0200
0000
0000
1E70
6398
C30C
830C
1FFC
7300
C300
C300
C584
78F8
ENDCHAR
STARTCHAR 01FE
ENCODING 510
SWIDTH 608 0
DWIDTH 14 0
BBX 12 21 1 -1
BITMAP
0100
01C0
0300
0C00
0000
0000
0F30
30E0
20E0
40E0
C1B0
C330
C230
C630
CC30
C830
5820
7040
7080
CF00
8000
ENDCHAR
STARTCHAR 01FF
ENCODING 511
SWIDTH 521 0
DWIDTH 12 0
BBX 10 18 1 -1
BITMAP
0300
0300
0600
0C00
0800
0000
0040
1EC0
2380
43C0
C2C0
C4C0
C8C0
D8C0
F080
7100
DE00
8000
ENDCHAR
STARTCHAR 021E
ENCODING 542
SWIDTH 652 0
DWIDTH 15 0
BBX 15 20 0 0
BITMAP
1020
0C40
06C0
0380
0000
0000
FC7E
3018
3018
3018
3018
3018
3FF8
3018
3018
3018
3018
3018
3018
FC7E
ENDCHAR
STARTCHAR 021F
ENCODING 543
SWIDTH 565 0
DWIDTH 13 0
BBX 13 22 0 0
BITMAP
18C0
0D80
0700
0200
0000
3000
F000
3000
3000
3000
3000
3000
33C0
3460
3860
3060
3060
3060
3060
3060
3060
FDF8
ENDCHAR
STARTCHAR 0226
ENCODING 550
SWIDTH 608 0
DWIDTH 14 0
BBX 13 18 0 0
BITMAP
0200
0300
0200
0000
0200
0300
0500
0580
0580
0880
08C0
08C0
1FC0
1060
1060
2030
2030
F878
ENDCHAR
STARTCHAR 0227
ENCODING 551
SWIDTH 478 0
DWIDTH 11 0
BBX 10 15 1 0
BITMAP
0800
1800
1800
0000
0000
1E00
6300
C300
0300
1F00
6300
C300
C300
C700
7BC0
ENDCHAR
STARTCHAR 0228
ENCODING 552
SWIDTH 478 0
DWIDTH 11 0
BBX 10 19 0 -5
BITMAP
FFC0
3040
3040
3000
3000
3000
3F80
3100
3000
3000
3000
3040
3040
FF80
0800
0400
0E00
0600
0C00
ENDCHAR
STARTCHAR 0229
ENCODING 553
SWIDTH 478 0
DWIDTH 11 0
BBX 9 15 1 -5
BITMAP
1E00
2100
4180
FF80
C000
C000
C000
E000
7080
3F00
0C00
0E00
0600
0600
1800
ENDCHAR
STARTCHAR 022A
ENCODING 554
SWIDTH 608 0
DWIDTH 14 0
BBX 12 21 1 0
BITMAP
3FC0
0000
0000
1080
18C0
1080
0000
0F80
30C0
2060
6060
C030
C030
C030
C030
C030
C030
6060
6040
3080
1F00
ENDCHAR
STARTCHAR 022B
ENCODING 555
SWIDTH 521 0
DWIDTH 12 0
BBX 10 18 1 0
BITMAP
7F80
0000
0000
3180
3180
2100
0000
0000
1E00
2380
4180
C0C0
C0C0
C0C0
C0C0
E080
7100
1E00
ENDCHAR
STARTCHAR 022C
ENCODING 556
SWIDTH 608 0
DWIDTH 14 0
BBX 12 21 1 0
BITMAP
3FC0
0000
0880
1C40
3780
0000
0000
0F80
30C0
2060
6060
C030
C030
C030
C030
C030
C030
6060
6040
3080
1F00
ENDCHAR
STARTCHAR 022D
ENCODING 557
SWIDTH 521 0
DWIDTH 12 0
BBX 10 18 1 0
BITMAP
7F80
0000
0000
3880
4700
0000
0000
0000
1E00
2380
4180
C0C0
C0C0
C0C0
C0C0
E080
7100
1E00
ENDCHAR
STARTCHAR 022E
ENCODING 558
SWIDTH 608 0
DWIDTH 14 0
BBX 12 18 1 0
BITMAP
0400
0600
0400
0000
0F80
30C0
2060
6060
C030
C030
C030
C030
C030
C030
6060
6040
3080
1F00
ENDCHAR
STARTCHAR 022F
ENCODING 559
SWIDTH 521 0
DWIDTH 12 0
BBX 10 15 1 0
BITMAP
0C00
0C00
0800
0000
0000
1E00
2380
4180
C0C0
C0C0
C0C0
C0C0
E080
7100
1E00
ENDCHAR
STARTCHAR 0230
ENCODING 560
SWIDTH 608 0
DWIDTH 14 0
BBX 12 21 1 0
BITMAP
3FC0
0000
0000
0400
0600
0400
0000
0F80
30C0
2060
6060
C030
C030
C030
C030
C030
C030
6060
6040
3080
1F00
ENDCHAR
STARTCHAR 0231
ENCODING 561
SWIDTH 521 0
DWIDTH 12 0
BBX 10 18 1 0
BITMAP
7F80
0000
0000
0C00
0C00
0800
0000
0000
1E00
2380
4180
C0C0
C0C0
C0C0
C0C0
E080
7100
1E00
ENDCHAR
STARTCHAR 0232
ENCODING 562
SWIDTH 608 0
DWIDTH 14 0
BBX 14 18 0 0
BITMAP
1FE0
0000
0000
0000
E07C
3030
1820
1860
0C40
06C0
0780
0300
0300
0300
0300
0300
0300
0FC0
ENDCHAR
STARTCHAR 0233
ENCODING 563
SWIDTH 478 0
DWIDTH 11 0
BBX 12 19 -1 -5
BITMAP
1FE0
0000
0000
0000
7CF0
1020
1840
1840
0CC0
0C80
0480
0700
0300
0300
0200
0600
0400
7800
F000
ENDCHAR
STARTCHAR 0237
ENCODING 567
SWIDTH 260 0
DWIDTH 6 0
BBX 7 15 -3 -5
BITMAP
06
1E
06
06
06
06
06
06
06
06
06
06
04
08
F0
ENDCHAR
STARTCHAR 023D
ENCODING 573
SWIDTH 478 0
DWIDTH 11 0
BBX 11 14 0 0
BITMAP
FC00
3000
3000
3000
3000
3000
3000
FE00
3000
3000
3000
3020
3040
FFC0
ENDCHAR
STARTCHAR 0241
ENCODING 577
SWIDTH 478 0
DWIDTH 11 0
BBX 10 14 0 0
BITMAP
1F00
6180
C0C0
C0C0
80C0
0180
0300
0600
0C00
0C00
0C00
0C00
0C00
3F00
ENDCHAR
STARTCHAR 0242
ENCODING 578
SWIDTH 391 0
DWIDTH 9 0
BBX 7 10 1 0
BITMAP
3C
46
C6
C6
0C
18
30
30
30
FC
ENDCHAR
STARTCHAR 0244
ENCODING 580
SWIDTH 652 0
DWIDTH 15 0
BBX 15 14 0 0
BITMAP
FC7E
3018
3018
3018
3018
3018
FFFE
3018
3018
3018
3018
1830
1C60
07C0
ENDCHAR
STARTCHAR 0245
ENCODING 581
SWIDTH 652 0
DWIDTH 15 0
BBX 14 14 0 0
BITMAP
0100
0380
0380
0780
04C0
04C0
0C40
0860
0860
1830
1030
3010
2018
F83C
ENDCHAR
STARTCHAR 024A
ENCODING 586
SWIDTH 565 0
DWIDTH 13 0
BBX 15 19 1 -5
BITMAP
07A0
18E0
2060
6060
4060
C060
C060
C060
C060
C060
6060
60E0
3160
1E60
0060
0060
0066
0066
0038
ENDCHAR
STARTCHAR 024B
ENCODING 587
SWIDTH 521 0
DWIDTH 12 0
BBX 14 15 1 -5
BITMAP
1E80
2380
6180
C180
C180
C180
C180
E180
6380
3D80
0180
0180
018C
0188
00F0
ENDCHAR
STARTCHAR 0251
ENCODING 593
SWIDTH 478 0
DWIDTH 11 0
BBX 10 10 1 0
BITMAP
1D00
2300
4300
C300
C300
C300
C300
C300
6740
3B80
ENDCHAR
STARTCHAR 0253
ENCODING 595
SWIDTH 521 0
DWIDTH 12 0
BBX 9 17 2 0
BITMAP
0F00
3300
6000
4000
C000
C000
C000
CE00
F300
E380
C180
C180
C180
C180
C100
E200
3C00
ENDCHAR
STARTCHAR 0254
ENCODING 596
SWIDTH 434 0
DWIDTH 10 0
BBX 8 10 1 0
BITMAP
3C
C6
07
03
03
43
E3
C2
E6
78
ENDCHAR
STARTCHAR 0256
ENCODING 598
SWIDTH 521 0
DWIDTH 12 0
BBX 14 22 1 -5
BITMAP
0180
0780
0180
0180
0180
0180
0180
1F80
2380
4180
C180
C180
C180
C180
E180
6780
3980
0180
0180
018C
0198
00F0
ENDCHAR
STARTCHAR 0257
ENCODING 599
SWIDTH 521 0
DWIDTH 12 0
BBX 13 17 1 0
BITMAP
0038
00D8
0080
0180
0180
0180
0180
1F80
2380
4180
C180
C180
C180
C180
E180
63A0
3DC0
ENDCHAR
STARTCHAR 0259
ENCODING 601
SWIDTH 434 0
DWIDTH 10 0
BBX 8 10 1 0
BITMAP
3C
C6
07
03
03
7F
C3
C2
E4
78
ENDCHAR
STARTCHAR 025B
ENCODING 603
SWIDTH 434 0
DWIDTH 10 0
BBX 9 10 1 0
BITMAP
3F00
4300
C000
E000
7800
6000
C000
C000
E180
3E00
ENDCHAR
STARTCHAR 0263
ENCODING 611
SWIDTH 478 0
DWIDTH 11 0
BBX 11 15 0 -5
BITMAP
F1E0
2080
3080
1100
1900
0A00
0E00
0400
0600
0E00
0B00
1B00
1B00
1B00
0E00
ENDCHAR
STARTCHAR 0268
ENCODING 616
SWIDTH 260 0
DWIDTH 6 0
BBX 6 15 0 0
BITMAP
30
30
30
00
00
30
F0
30
30
FC
30
30
30
30
FC
ENDCHAR
STARTCHAR 0269
ENCODING 617
SWIDTH 260 0
DWIDTH 6 0
BBX 7 10 0 0
BITMAP
30
F0
30
30
30
30
30
30
32
3C
ENDCHAR
STARTCHAR 026B
ENCODING 619
SWIDTH 347 0
DWIDTH 8 0
BBX 8 17 0 0
BITMAP
18
78
18
18
18
18
18
79
9E
18
18
18
18
18
18
18
7E
ENDCHAR
STARTCHAR 0272
ENCODING 626
SWIDTH 565 0
DWIDTH 13 0
BBX 16 15 -3 -5
BITMAP
0E38
16CC
070C
060C
060C
060C
060C
060C
060C
061E
0621
0600
0400
4800
F000
ENDCHAR
STARTCHAR 0275
ENCODING 629
SWIDTH 521 0
DWIDTH 12 0
BBX 10 10 1 0
BITMAP
1E00
2180
4180
C0C0
FFC0
C0C0
C0C0
E180
7100
1E00
ENDCHAR
STARTCHAR 0283
ENCODING 643
SWIDTH 217 0
DWIDTH 5 0
BBX 11 22 -3 -5
BITMAP
01C0
0660
0400
0C00
0C00
0C00
0C00
0C00
0C00
0C00
0E00
0600
0600
0600
0600
0600
0600
0600
0600
0400
8800
F000
ENDCHAR
STARTCHAR 0289
ENCODING 649
SWIDTH 521 0
DWIDTH 12 0
BBX 11 10 1 0
BITMAP
E780
6180
6180
6180
FFC0
6180
6180
6180
63A0
3DC0
ENDCHAR
STARTCHAR 028A
ENCODING 650
SWIDTH 478 0
DWIDTH 11 0
BBX 9 10 1 0
BITMAP
F780
3600
6300
C180
C180
C180
C180
E100
6300
3C00
ENDCHAR
STARTCHAR 028C
ENCODING 652
SWIDTH 478 0
DWIDTH 11 0
BBX 11 10 0 0
BITMAP
0400
0E00
0E00
0B00
1300
1100
3180
2180
20C0
F1E0
ENDCHAR
STARTCHAR 0292
ENCODING 658
SWIDTH 434 0
DWIDTH 10 0
BBX 9 15 1 -5
BITMAP
FF00
8700
8600
0C00
1800
3000
7E00
0700
0380
0180
0180
0180
8100
C200
7C00
ENDCHAR
STARTCHAR 0294
ENCODING 660
SWIDTH 478 0
DWIDTH 11 0
BBX 9 17 1 0
BITMAP
1E00
6300
C180
C180
8180
0180
0300
0600
0C00
0800
1800
1800
1800
1800
1800
1800
7E00
ENDCHAR
STARTCHAR 02A0
ENCODING 672
SWIDTH 521 0
DWIDTH 12 0
BBX 13 22 1 -5
BITMAP
0038
00D8
0080
0180
0180
0180
0180
1F80
2380
6180
C180
C180
C180
C180
E180
6380
3D80
0180
0180
0180
0180
07E0
ENDCHAR
STARTCHAR 02BC
ENCODING 700
SWIDTH 217 0
DWIDTH 5 0
BBX 4 5 0 12
BITMAP
60
F0
30
20
40
ENDCHAR
STARTCHAR 02C0
ENCODING 704
SWIDTH 347 0
DWIDTH 8 0
BBX 7 9 0 9
BITMAP
3C
CE
C6
06
0C
0C
18
18
18
ENDCHAR
STARTCHAR 02C6
ENCODING 710
SWIDTH 347 0
DWIDTH 8 0
BBX 7 5 1 12
BITMAP
30
38
68
C4
82
ENDCHAR
STARTCHAR 02C7
ENCODING 711
SWIDTH 347 0
DWIDTH 8 0
BBX 7 5 1 12
BITMAP
82
C4
78
38
30
ENDCHAR
STARTCHAR 02C9
ENCODING 713
SWIDTH 478 0
DWIDTH 11 0
BBX 7 1 2 13
BITMAP
FE
ENDCHAR
STARTCHAR 02CA
ENCODING 714
SWIDTH 217 0
DWIDTH 5 0
BBX 5 5 0 12
BITMAP
30
38
60
40
80
ENDCHAR
STARTCHAR 02CB
ENCODING 715
SWIDTH 217 0
DWIDTH 5 0
BBX 5 5 0 12
BITMAP
C0
60
20
10
18
ENDCHAR
STARTCHAR 02CD
ENCODING 717
SWIDTH 478 0
DWIDTH 11 0
BBX 7 1 2 -2
BITMAP
FE
ENDCHAR
STARTCHAR 02D7
ENCODING 727
SWIDTH 347 0
DWIDTH 8 0
BBX 6 1 1 5
BITMAP
FC
ENDCHAR
STARTCHAR 02D8
ENCODING 728
SWIDTH 347 0
DWIDTH 8 0
BBX 8 4 0 12
BITMAP
81
42
62
3C
ENDCHAR
STARTCHAR 02D9
ENCODING 729
SWIDTH 217 0
DWIDTH 5 0
BBX 2 3 1 12
BITMAP
C0
C0
C0
ENDCHAR
STARTCHAR 02DA
ENCODING 730
SWIDTH 260 0
DWIDTH 6 0
BBX 4 4 1 12
BITMAP
70
F0
F0
E0
ENDCHAR
STARTCHAR 02DB
ENCODING 731
SWIDTH 260 0
DWIDTH 6 0
BBX 5 5 1 -5
BITMAP
18
60
C0
C8
F0
ENDCHAR
STARTCHAR 02DC
ENCODING 732
SWIDTH 391 0
DWIDTH 9 0
BBX 7 2 1 13
BITMAP
72
9C
ENDCHAR
STARTCHAR 02DD
ENCODING 733
SWIDTH 391 0
DWIDTH 9 0
BBX 7 5 1 12
BITMAP
26
64
4C
C8
90
ENDCHAR
STARTCHAR 0300
ENCODING 768
SWIDTH 0 0
DWIDTH 0 0
BBX 4 5 -8 12
BITMAP
C0
60
60
30
10
ENDCHAR
STARTCHAR 0301
ENCODING 769
SWIDTH 0 0
DWIDTH 0 0
BBX 4 5 -7 12
BITMAP
30
30
60
C0
80
ENDCHAR
STARTCHAR 0302
ENCODING 770
SWIDTH 0 0
DWIDTH 0 0
BBX 7 5 -9 12
BITMAP
30
38
68
C4
82
ENDCHAR
STARTCHAR 0303
ENCODING 771
SWIDTH 0 0
DWIDTH 0 0
BBX 8 2 -10 13
BITMAP
39
CE
ENDCHAR
STARTCHAR 0304
ENCODING 772
SWIDTH 0 0
DWIDTH 0 0
BBX 8 1 -10 13
BITMAP
FF
ENDCHAR
STARTCHAR 0306
ENCODING 774
SWIDTH 0 0
DWIDTH 0 0
BBX 7 4 -9 12
BITMAP
82
84
44
38
ENDCHAR
STARTCHAR 0307
ENCODING 775
SWIDTH 0 0
DWIDTH 0 0
BBX 2 3 -7 12
BITMAP
C0
C0
C0
ENDCHAR
STARTCHAR 0308
ENCODING 776
SWIDTH 0 0
DWIDTH 0 0
BBX 7 3 -9 12
BITMAP
C6
C6
C6
ENDCHAR
STARTCHAR 0309
ENCODING 777
SWIDTH 0 0
DWIDTH 0 0
BBX 4 4 -8 12
BITMAP
70
B0
60
E0
ENDCHAR
STARTCHAR 030A
ENCODING 778
SWIDTH 0 0
DWIDTH 0 0
BBX 4 4 -8 12
BITMAP
70
F0
F0
E0
ENDCHAR
STARTCHAR 030B
ENCODING 779
SWIDTH 0 0
DWIDTH 0 0
BBX 7 5 -8 12
BITMAP
26
64
4C
C8
90
ENDCHAR
STARTCHAR 030C
ENCODING 780
SWIDTH 0 0
DWIDTH 0 0
BBX 7 5 -9 12
BITMAP
82
C4
68
38
30
ENDCHAR
STARTCHAR 031B
ENCODING 795
SWIDTH 43 0
DWIDTH 1 0
BBX 4 5 -3 8
BITMAP
30
70
20
40
80
ENDCHAR
STARTCHAR 0323
ENCODING 803
SWIDTH 0 0
DWIDTH 0 0
BBX 2 3 -7 -5
BITMAP
C0
C0
C0
ENDCHAR
STARTCHAR 0327
ENCODING 807
SWIDTH 0 0
DWIDTH 0 0
BBX 4 5 -8 -5
BITMAP
60
60
70
30
C0
ENDCHAR
STARTCHAR 0328
ENCODING 808
SWIDTH 0 0
DWIDTH 0 0
BBX 5 5 -8 -5
BITMAP
18
60
C0
C8
F0
ENDCHAR
STARTCHAR 0331
ENCODING 817
SWIDTH 0 0
DWIDTH 0 0
BBX 8 1 -10 -4
BITMAP
FF
ENDCHAR
STARTCHAR 033F
ENCODING 831
SWIDTH 0 0
DWIDTH 0 0
BBX 13 4 -12 13
BITMAP
7FF8
8000
0000
FFF8
ENDCHAR
STARTCHAR 035E
ENCODING 862
SWIDTH 0 0
DWIDTH 0 0
BBX 14 1 -7 19
BITMAP
FFFC
ENDCHAR
STARTCHAR 035F
ENCODING 863
SWIDTH 0 0
DWIDTH 0 0
BBX 14 1 -7 -8
BITMAP
FFFC
ENDCHAR
STARTCHAR 03A0
ENCODING 928
SWIDTH 608 0
DWIDTH 14 0
BBX 14 14 0 0
BITMAP
FFFC
3030
3030
3030
3030
3030
3030
3030
3030
3030
3030
3030
3030
FCFC
ENDCHAR
STARTCHAR 03A9
ENCODING 937
SWIDTH 652 0
DWIDTH 15 0
BBX 13 14 1 0
BITMAP
0FC0
3060
6030
6018
C018
C018
C018
C018
C010
6030
2060
9048
8888
F8F8
ENDCHAR
STARTCHAR 03C0
ENCODING 960
SWIDTH 521 0
DWIDTH 12 0
BBX 12 10 0 0
BITMAP
7FF0
9180
1180
1180
1180
1180
3180
3180
3180
60F0
ENDCHAR
STARTCHAR 1E02
ENCODING 7682
SWIDTH 565 0
DWIDTH 13 0
BBX 11 18 0 0
BITMAP
0400
0600
0400
0000
7F00
B1C0
30C0
30C0
30C0
3180
3F80
31C0
30E0
3060
3060
3060
30C0
FF80
ENDCHAR
STARTCHAR 1E03
ENCODING 7683
SWIDTH 521 0
DWIDTH 12 0
BBX 10 17 1 0
BITMAP
6000
E000
6400
6C00
6400
6000
6000
6700
7980
71C0
60C0
60C0
60C0
60C0
6080
7100
1E00
ENDCHAR
STARTCHAR 1E04
ENCODING 7684
SWIDTH 565 0
DWIDTH 13 0
BBX 11 19 0 -5
BITMAP
7F00
B1C0
30C0
30C0
30C0
3180
3F80
31C0
30E0
3060
3060
3060
30C0
7F80
8000
0000
0600
0600
0400
ENDCHAR
STARTCHAR 1E05
ENCODING 7685
SWIDTH 521 0
DWIDTH 12 0
BBX 10 22 1 -5
BITMAP
6000
E000
6000
6000
6000
6000
6000
6700
7980
71C0
60C0
60C0
60C0
60C0
6080
7100
1E00
0000
0000
0800
1800
1800
ENDCHAR
STARTCHAR 1E06
ENCODING 7686
SWIDTH 565 0
DWIDTH 13 0
BBX 11 18 0 -4
BITMAP
7F00
B1C0
30C0
30C0
30C0
3180
3F80
31C0
30E0
3060
3060
3060
30C0
7F80
8000
0000
0000
3FC0
ENDCHAR
STARTCHAR 1E07
ENCODING 7687
SWIDTH 521 0
DWIDTH 12 0
BBX 10 21 1 -4
BITMAP
6000
E000
6000
6000
6000
6000
6000
6700
7980
71C0
60C0
60C0
60C0
60C0
6080
7100
1E00
0000
0000
0000
7F00
ENDCHAR
STARTCHAR 1E08
ENCODING 7688
SWIDTH 521 0
DWIDTH 12 0
BBX 11 24 1 -5
BITMAP
0080
03C0
0600
0800
0000
07C0
1860
2000
6000
4000
C000
C000
C000
C000
C000
E000
6080
31C0
1E00
0800
0400
0E00
0600
1800
ENDCHAR
STARTCHAR 1E09
ENCODING 7689
SWIDTH 434 0
DWIDTH 10 0
BBX 9 22 1 -5
BITMAP
0300
0600
0400
0800
1000
0000
0000
0F00
3180
6000
C000
C000
C000
C000
C000
6300
3C00
1000
0800
1C00
0C00
3000
ENDCHAR
STARTCHAR 1E0A
ENCODING 7690
SWIDTH 608 0
DWIDTH 14 0
BBX 13 18 0 0
BITMAP
0200
0600
0600
0000
7F80
B0E0
3070
3030
3018
3018
3018
3018
3018
3018
3030
3070
30E0
FF80
ENDCHAR
STARTCHAR 1E0B
ENCODING 7691
SWIDTH 521 0
DWIDTH 12 0
BBX 11 17 1 0
BITMAP
0180
0780
2180
3180
2180
0180
0180
1F80
2380
4180
C180
C180
C180
C180
E180
67A0
39C0
ENDCHAR
STARTCHAR 1E0C
ENCODING 7692
SWIDTH 608 0
DWIDTH 14 0
BBX 13 19 0 -5
BITMAP
7F80
B0E0
3070
3030
3018
3018
3018
3018
3018
3018
3030
3070
30E0
7F80
8000
0000
0600
0600
0600
ENDCHAR
STARTCHAR 1E0D
ENCODING 7693
SWIDTH 521 0
DWIDTH 12 0
BBX 11 22 1 -5
BITMAP
0180
0780
0180
0180
0180
0180
0180
1F80
2380
4180
C180
C180
C180
C180
E180
67A0
39C0
0000
0000
0C00
0C00
0800
ENDCHAR
STARTCHAR 1E0E
ENCODING 7694
SWIDTH 608 0
DWIDTH 14 0
BBX 13 18 0 -4
BITMAP
7F80
B0E0
3070
3030
3018
3018
3018
3018
3018
3018
3030
3070
30E0
7F80
8000
0000
0000
3FC0
ENDCHAR
STARTCHAR 1E0F
ENCODING 7695
SWIDTH 521 0
DWIDTH 12 0
BBX 11 21 1 -4
BITMAP
0180
0780
0180
0180
0180
0180
0180
1F80
2380
4180
C180
C180
C180
C180
E180
67A0
39C0
0000
0000
0000
7F80
ENDCHAR
STARTCHAR 1E14
ENCODING 7700
SWIDTH 478 0
DWIDTH 11 0
BBX 11 23 0 0
BITMAP
3000
1800
0600
0300
0000
3F80
0040
0000
0000
FFC0
3040
3040
3000
3000
3000
3F80
3100
3000
3000
3000
3020
3060
FFC0
ENDCHAR
STARTCHAR 1E15
ENCODING 7701
SWIDTH 478 0
DWIDTH 11 0
BBX 9 21 1 0
BITMAP
3000
7000
1800
0800
0400
0000
0000
7F80
0000
0000
0000
1E00
2100
4180
FF80
C000
C000
C000
E000
7180
3E00
ENDCHAR
STARTCHAR 1E16
ENCODING 7702
SWIDTH 478 0
DWIDTH 11 0
BBX 11 23 0 0
BITMAP
0180
0380
0600
0800
0000
3F80
0040
0000
0000
FFC0
3040
3040
3000
3000
3000
3F80
3100
3000
3000
3000
3020
3060
FFC0
ENDCHAR
STARTCHAR 1E17
ENCODING 7703
SWIDTH 478 0
DWIDTH 11 0
BBX 9 21 1 0
BITMAP
0300
0600
0400
0C00
0800
0000
0000
7F80
0000
0000
0000
1E00
2100
4180
FF80
C000
C000
C000
E000
7180
3E00
ENDCHAR
STARTCHAR 1E1C
ENCODING 7708
SWIDTH 478 0
DWIDTH 11 0
BBX 10 24 0 -5
BITMAP
2080
1180
0F00
0000
0000
FFC0
3040
3040
3000
3000
3000
3F80
3100
3000
3000
3000
3040
3040
FF80
0800
0400
0E00
0600
0C00
ENDCHAR
STARTCHAR 1E1D
ENCODING 7709
SWIDTH 478 0
DWIDTH 11 0
BBX 9 21 1 -5
BITMAP
4100
4100
2200
1C00
0000
0000
1E00
2100
4180
FF80
C000
C000
C000
E000
7080
3F00
0C00
0E00
0600
0600
1800
ENDCHAR
STARTCHAR 1E1E
ENCODING 7710
SWIDTH 478 0
DWIDTH 11 0
BBX 10 18 0 0
BITMAP
0400
0C00
0C00
0000
FFC0
3040
3040
3000
3000
3000
3F80
3100
3000
3000
3000
3000
3000
FC00
ENDCHAR
STARTCHAR 1E1F
ENCODING 7711
SWIDTH 304 0
DWIDTH 7 0
BBX 9 20 0 0
BITMAP
0800
1C00
0000
0780
0900
1000
3000
3000
3000
3000
7E00
B000
3000
3000
3000
3000
3000
3000
3000
FC00
ENDCHAR
STARTCHAR 1E20
ENCODING 7712
SWIDTH 565 0
DWIDTH 13 0
BBX 11 18 1 0
BITMAP
1FC0
2000
0000
0000
0F80
10C0
2000
6000
C000
C000
C000
C3E0
C0C0
C0C0
60C0
60C0
30C0
1F00
ENDCHAR
STARTCHAR 1E21
ENCODING 7713
SWIDTH 478 0
DWIDTH 11 0
BBX 12 19 0 -5
BITMAP
3FC0
0000
0000
0000
1F30
31C0
60C0
60C0
60C0
3180
1F00
1800
3800
1FC0
6070
C030
C030
6060
3F80
ENDCHAR
STARTCHAR 1E22
ENCODING 7714
SWIDTH 652 0
DWIDTH 15 0
BBX 15 18 0 0
BITMAP
0100
0300
0300
0000
FC7E
3018
3018
3018
3018
3018
3FF8
3018
3018
3018
3018
3018
3018
FC7E
ENDCHAR
STARTCHAR 1E23
ENCODING 7715
SWIDTH 565 0
DWIDTH 13 0
BBX 13 20 0 0
BITMAP
0600
0600
0000
3000
F000
3000
3000
3000
3000
3000
33C0
3460
3860
3060
3060
3060
3060
3060
3060
FDF8
ENDCHAR
STARTCHAR 1E24
ENCODING 7716
SWIDTH 652 0
DWIDTH 15 0
BBX 15 19 0 -5
BITMAP
FC7E
3018
3018
3018
3018
3018
3FF8
3018
3018
3018
3018
3018
3018
FC7E
0000
0000
0100
0300
0300
ENDCHAR
STARTCHAR 1E25
ENCODING 7717
SWIDTH 565 0
DWIDTH 13 0
BBX 13 22 0 -5
BITMAP
3000
F000
3000
3000
3000
3000
3000
33C0
3460
3860
3060
3060
3060
3060
3060
3060
78F0
8508
0000
0200
0600
0600
ENDCHAR
STARTCHAR 1E26
ENCODING 7718
SWIDTH 652 0
DWIDTH 15 0
BBX 15 18 0 0
BITMAP
0420
0C60
0C60
0000
FC7E
3018
3018
3018
3018
3018
3FF8
3018
3018
3018
3018
3018
3018
FC7E
ENDCHAR
STARTCHAR 1E27
ENCODING 7719
SWIDTH 565 0
DWIDTH 13 0
BBX 13 20 0 0
BITMAP
18C0
18C0
0000
3000
F000
3000
3000
3000
3000
3000
33C0
3460
3860
3060
3060
3060
3060
3060
3060
FDF8
ENDCHAR
STARTCHAR 1E2E
ENCODING 7726
SWIDTH 304 0
DWIDTH 7 0
BBX 7 23 0 0
BITMAP
06
0C
30
40
00
42
C6
C6
00
FC
30
30
30
30
30
30
30
30
30
30
30
30
FC
ENDCHAR
STARTCHAR 1E2F
ENCODING 7727
SWIDTH 260 0
DWIDTH 6 0
BBX 7 21 0 0
BITMAP
0C
0E
18
10
20
00
C6
C6
C6
00
00
30
F0
30
30
30
30
30
30
30
FC
ENDCHAR
STARTCHAR 1E30
ENCODING 7728
SWIDTH 565 0
DWIDTH 13 0
BBX 13 20 0 0
BITMAP
0080
00C0
0380
0600
0000
0000
FCF0
3040
3080
3100
3200
3600
3C00
3600
3600
3300
3180
30C0
3060
FC38
ENDCHAR
STARTCHAR 1E31
ENCODING 7729
SWIDTH 521 0
DWIDTH 12 0
BBX 12 22 0 0
BITMAP
01C0
0380
0600
0800
0000
3000
F000
3000
3000
3000
3000
3000
31E0
3180
3300
3400
3C00
3600
3300
3180
30C0
F8F0
ENDCHAR
STARTCHAR 1E32
ENCODING 7730
SWIDTH 565 0
DWIDTH 13 0
BBX 13 19 0 -5
BITMAP
FCF0
3040
3080
3100
3200
3600
3C00
3600
3600
3300
3180
30C0
3060
FC38
0000
0000
0300
0300
0200
ENDCHAR
STARTCHAR 1E33
ENCODING 7731
SWIDTH 521 0
DWIDTH 12 0
BBX 12 22 0 -5
BITMAP
3000
F000
3000
3000
3000
3000
3000
31E0
3180
3300
3400
3C00
3600
3300
3180
30C0
78F0
8000
0000
0600
0600
0400
ENDCHAR
STARTCHAR 1E34
ENCODING 7732
SWIDTH 565 0
DWIDTH 13 0
BBX 13 18 0 -4
BITMAP
FCF0
3040
3080
3100
3200
3600
3C00
3600
3600
3300
3180
30C0
3060
FC38
0000
0000
0000
1FE0
ENDCHAR
STARTCHAR 1E35
ENCODING 7733
SWIDTH 521 0
DWIDTH 12 0
BBX 12 21 0 -4
BITMAP
3000
F000
3000
3000
3000
3000
3000
31E0
3180
3300
3400
3C00
3600
3300
3180
30C0
78F0
8000
0000
0000
3FC0
ENDCHAR
STARTCHAR 1E36
ENCODING 7734
SWIDTH 478 0
DWIDTH 11 0
BBX 11 19 0 -5
BITMAP
FC00
3000
3000
3000
3000
3000
3000
3000
3000
3000
3000
3020
3040
FFC0
0000
0000
0400
0C00
0C00
ENDCHAR
STARTCHAR 1E37
ENCODING 7735
SWIDTH 260 0
DWIDTH 6 0
BBX 6 22 0 -5
BITMAP
30
F0
30
30
30
30
30
30
30
30
30
30
30
30
30
30
FC
00
00
30
30
30
ENDCHAR
STARTCHAR 1E38
ENCODING 7736
SWIDTH 478 0
DWIDTH 11 0
BBX 11 23 0 -5
BITMAP
3F80
0000
0000
0000
FC00
3000
3000
3000
3000
3000
3000
3000
3000
3000
3000
3020
3040
FFC0
0000
0000
0400
0C00
0C00
ENDCHAR
STARTCHAR 1E39
ENCODING 7737
SWIDTH 260 0
DWIDTH 6 0
BBX 7 26 0 -5
BITMAP
FE
00
00
00
30
F0
30
30
30
30
30
30
30
30
30
30
30
30
30
30
FC
00
00
30
30
30
ENDCHAR
STARTCHAR 1E3A
ENCODING 7738
SWIDTH 478 0
DWIDTH 11 0
BBX 11 18 0 -4
BITMAP
FC00
3000
3000
3000
3000
3000
3000
3000
3000
3000
3000
3020
3040
FFC0
0000
0000
0000
3F80
ENDCHAR
STARTCHAR 1E3B
ENCODING 7739
SWIDTH 260 0
DWIDTH 6 0
BBX 8 21 -1 -4
BITMAP
18
78
18
18
18
18
18
18
18
18
18
18
18
18
18
18
7E
00
00
00
FF
ENDCHAR
STARTCHAR 1E3E
ENCODING 7742
SWIDTH 826 0
DWIDTH 19 0
BBX 17 20 1 0
BITMAP
002000
007000
00C000
010000
020000
000000
F00700
700E00
700E00
781E00
681600
6C1600
6C2600
662600
666600
634600
63C600
618600
618600
F10F80
ENDCHAR
STARTCHAR 1E3F
ENCODING 7743
SWIDTH 782 0
DWIDTH 18 0
BBX 20 17 0 0
BITMAP
001800
003000
006000
004000
008000
000000
000000
71C780
B668C0
3870C0
3060C0
3060C0
3060C0
3060C0
3060C0
3060C0
FDFBF0
ENDCHAR
STARTCHAR 1E40
ENCODING 7744
SWIDTH 826 0
DWIDTH 19 0
BBX 17 18 1 0
BITMAP
008000
018000
018000
000000
F00700
700E00
700E00
781E00
681600
6C1600
6C2600
662600
666600
634600
63C600
618600
618600
F10F80
ENDCHAR
STARTCHAR 1E41
ENCODING 7745
SWIDTH 782 0
DWIDTH 18 0
BBX 20 15 0 0
BITMAP
004000
00C000
00C000
000000
000000
71C780
B668C0
3870C0
3060C0
3060C0
3060C0
3060C0
3060C0
3060C0
FDFBF0
ENDCHAR
STARTCHAR 1E42
ENCODING 7746
SWIDTH 826 0
DWIDTH 19 0
BBX 17 19 1 -5
BITMAP
F00700
700E00
700E00
781E00
681600
6C1600
6C2600
662600
666600
634600
63C600
618600
618600
F10F80
000000
000000
018000
018000
018000
ENDCHAR
STARTCHAR 1E43
ENCODING 7747
SWIDTH 782 0
DWIDTH 18 0
BBX 20 15 0 -5
BITMAP
71C780
B668C0
3870C0
3060C0
3060C0
3060C0
3060C0
3060C0
3060C0
78F1E0
850A10
000000
004000
00C000
00C000
ENDCHAR
STARTCHAR 1E44
ENCODING 7748
SWIDTH 652 0
DWIDTH 15 0
BBX 15 18 0 0
BITMAP
0100
0300
0300
0000
F07E
3018
3818
3C18
3418
3218
3318
3198
3098
30D8
3078
3038
3038
FC18
ENDCHAR
STARTCHAR 1E45
ENCODING 7749
SWIDTH 565 0
DWIDTH 13 0
BBX 13 15 0 0
BITMAP
0200
0600
0600
0000
0000
71C0
B660
3860
3060
3060
3060
3060
3060
3060
FDF8
ENDCHAR
STARTCHAR 1E46
ENCODING 7750
SWIDTH 652 0
DWIDTH 15 0
BBX 15 19 0 -5
BITMAP
F07E
3018
3818
3C18
3418
3218
3318
3198
3098
30D8
3078
3038
3038
FC18
0000
0000
0100
0300
0300
ENDCHAR
STARTCHAR 1E47
ENCODING 7751
SWIDTH 565 0
DWIDTH 13 0
BBX 13 15 0 -5
BITMAP
71C0
B660
3860
3060
3060
3060
3060
3060
3060
78F0
8508
0000
0200
0600
0600
ENDCHAR
STARTCHAR 1E48
ENCODING 7752
SWIDTH 652 0
DWIDTH 15 0
BBX 15 18 0 -4
BITMAP
F07E
3018
3818
3C18
3418
3218
3318
3198
3098
30D8
3078
3038
3038
FC18
0000
0000
0000
0FE0
ENDCHAR
STARTCHAR 1E49
ENCODING 7753
SWIDTH 565 0
DWIDTH 13 0
BBX 13 14 0 -4
BITMAP
71C0
B660
3860
3060
3060
3060
3060
3060
3060
78F0
8508
0000
0000
1FC0
ENDCHAR
STARTCHAR 1E4C
ENCODING 7756
SWIDTH 608 0
DWIDTH 14 0
BBX 12 23 1 0
BITMAP
0180
03C0
0600
0800
0880
1C40
3780
0000
0000
0F80
30C0
2060
6060
C030
C030
C030
C030
C030
C030
6060
6040
3080
1F00
ENDCHAR
STARTCHAR 1E4D
ENCODING 7757
SWIDTH 521 0
DWIDTH 12 0
BBX 10 21 1 0
BITMAP
0300
0300
0600
0400
0800
0000
3880
4700
0000
0000
0000
1E00
2380
4180
C0C0
C0C0
C0C0
C0C0
E080
7100
1E00
ENDCHAR
STARTCHAR 1E4E
ENCODING 7758
SWIDTH 608 0
DWIDTH 14 0
BBX 12 21 1 0
BITMAP
18C0
18C0
1880
1C40
3780
0000
0000
0F80
30C0
2060
6060
C030
C030
C030
C030
C030
C030
6060
6040
3080
1F00
ENDCHAR
STARTCHAR 1E4F
ENCODING 7759
SWIDTH 521 0
DWIDTH 12 0
BBX 10 19 1 0
BITMAP
3180
3180
2100
0000
3880
4700
0000
0000
0000
1E00
2380
4180
C0C0
C0C0
C0C0
C0C0
E080
7100
1E00
ENDCHAR
STARTCHAR 1E50
ENCODING 7760
SWIDTH 608 0
DWIDTH 14 0
BBX 12 23 1 0
BITMAP
3000
1C00
0600
0100
0000
1FC0
2000
0000
0000
0F80
30C0
2060
6060
C030
C030
C030
C030
C030
C030
6060
6040
3080
1F00
ENDCHAR
STARTCHAR 1E51
ENCODING 7761
SWIDTH 521 0
DWIDTH 12 0
BBX 10 21 1 0
BITMAP
3000
3000
1800
0C00
0400
0000
0000
7F80
0000
0000
0000
1E00
2380
4180
C0C0
C0C0
C0C0
C0C0
E080
7100
1E00
ENDCHAR
STARTCHAR 1E52
ENCODING 7762
SWIDTH 608 0
DWIDTH 14 0
BBX 12 23 1 0
BITMAP
0180
03C0
0600
0800
0000
1FC0
2000
0000
0000
0F80
30C0
2060
6060
C030
C030
C030
C030
C030
C030
6060
6040
3080
1F00
ENDCHAR
STARTCHAR 1E53
ENCODING 7763
SWIDTH 521 0
DWIDTH 12 0
BBX 10 21 1 0
BITMAP
0300
0300
0600
0400
0800
0000
0000
7F80
0000
0000
0000
1E00
2380
4180
C0C0
C0C0
C0C0
C0C0
E080
7100
1E00
ENDCHAR
STARTCHAR 1E54
ENCODING 7764
SWIDTH 521 0
DWIDTH 12 0
BBX 11 20 0 0
BITMAP
0100
0180
0340
0C00
0000
0000
7F80
B0C0
3060
3060
3060
3060
30C0
3F00
3000
3000
3000
3000
3000
FC00
ENDCHAR
STARTCHAR 1E55
ENCODING 7765
SWIDTH 521 0
DWIDTH 12 0
BBX 11 22 0 -5
BITMAP
0180
0180
0300
0600
0400
0000
0000
7380
BCC0
38E0
3060
3060
3060
3060
3040
38C0
3700
3000
3000
3000
3000
FC00
ENDCHAR
STARTCHAR 1E56
ENCODING 7766
SWIDTH 521 0
DWIDTH 12 0
BBX 11 18 0 0
BITMAP
0400
0600
0400
0000
7F80
B0C0
3060
3060
3060
3060
30C0
3F00
3000
3000
3000
3000
3000
FC00
ENDCHAR
STARTCHAR 1E57
ENCODING 7767
SWIDTH 521 0
DWIDTH 12 0
BBX 11 20 0 -5
BITMAP
0600
0600
0400
0000
0000
7380
BCC0
38E0
3060
3060
3060
3060
3040
38C0
3700
3000
3000
3000
3000
FC00
ENDCHAR
STARTCHAR 1E58
ENCODING 7768
SWIDTH 565 0
DWIDTH 13 0
BBX 13 18 0 0
BITMAP
0400
0600
0400
0000
7F00
B180
30C0
30C0
30C0
3080
3100
3E00
3300
3100
3180
30C0
30C0
FC78
ENDCHAR
STARTCHAR 1E59
ENCODING 7769
SWIDTH 391 0
DWIDTH 9 0
BBX 9 15 0 0
BITMAP
0C00
0C00
0800
0000
0000
3380
FC80
3800
3000
3000
3000
3000
3000
3000
FC00
ENDCHAR
STARTCHAR 1E5A
ENCODING 7770
SWIDTH 565 0
DWIDTH 13 0
BBX 13 19 0 -5
BITMAP
7F00
B180
30C0
30C0
30C0
3080
3100
3E00
3300
3100
3180
30C0
30C0
7C78
8000
0000
0600
0600
0400
ENDCHAR
STARTCHAR 1E5B
ENCODING 7771
SWIDTH 391 0
DWIDTH 9 0
BBX 9 15 0 -5
BITMAP
3380
FC80
3800
3000
3000
3000
3000
3000
3000
7C00
8000
0000
3000
3000
2000
ENDCHAR
STARTCHAR 1E5C
ENCODING 7772
SWIDTH 565 0
DWIDTH 13 0
BBX 13 23 0 -5
BITMAP
1FC0
2000
0000
0000
7F00
B180
30C0
30C0
30C0
3080
3100
3E00
3300
3100
3180
30C0
30C0
7C78
8000
0000
0600
0600
0400
ENDCHAR
STARTCHAR 1E5D
ENCODING 7773
SWIDTH 391 0
DWIDTH 9 0
BBX 9 19 0 -5
BITMAP
3F80
4000
0000
0000
3380
FC80
3800
3000
3000
3000
3000
3000
3000
7C00
8000
0000
3000
3000
2000
ENDCHAR
STARTCHAR 1E5E
ENCODING 7774
SWIDTH 565 0
DWIDTH 13 0
BBX 13 18 0 -4
BITMAP
7F00
B180
30C0
30C0
30C0
3080
3100
3E00
3300
3100
3180
30C0
30C0
7C78
8000
0000
0000
3FC0
ENDCHAR
STARTCHAR 1E5F
ENCODING 7775
SWIDTH 391 0
DWIDTH 9 0
BBX 10 14 -1 -4
BITMAP
19C0
7E40
1C00
1800
1800
1800
1800
1800
1800
3E00
4000
0000
0000
FF00
ENDCHAR
STARTCHAR 1E60
ENCODING 7776
SWIDTH 478 0
DWIDTH 11 0
BBX 9 18 1 0
BITMAP
0800
1800
1800
0000
3E00
6300
C000
C000
E000
7800
3E00
0F00
0380
0180
8180
8100
C300
7C00
ENDCHAR
STARTCHAR 1E61
ENCODING 7777
SWIDTH 391 0
DWIDTH 9 0
BBX 7 15 1 0
BITMAP
10
30
30
00
00
7C
CC
C0
E0
78
1E
06
86
86
F8
ENDCHAR
STARTCHAR 1E62
ENCODING 7778
SWIDTH 478 0
DWIDTH 11 0
BBX 9 19 1 -5
BITMAP
3E00
6300
C000
C000
E000
7800
3E00
0F00
0380
0180
8180
8100
C300
7C00
0000
0000
0800
1800
0800
ENDCHAR
STARTCHAR 1E63
ENCODING 7779
SWIDTH 391 0
DWIDTH 9 0
BBX 7 15 1 -5
BITMAP
7C
CC
C0
E0
78
1E
06
86
86
F8
00
00
10
30
30
ENDCHAR
STARTCHAR 1E64
ENCODING 7780
SWIDTH 478 0
DWIDTH 11 0
BBX 9 21 1 0
BITMAP
0800
1A00
0B00
0E00
1800
0000
0000
3E00
6300
C000
C000
E000
7800
3E00
0F00
0380
0180
8180
8100
C300
7C00
ENDCHAR
STARTCHAR 1E65
ENCODING 7781
SWIDTH 391 0
DWIDTH 9 0
BBX 7 19 1 0
BITMAP
10
30
36
0C
08
10
20
00
00
7C
CC
C0
E0
78
1E
06
86
86
F8
ENDCHAR
STARTCHAR 1E66
ENCODING 7782
SWIDTH 478 0
DWIDTH 11 0
BBX 9 21 1 0
BITMAP
0800
5900
2B00
3600
1C00
0000
0000
3E00
6300
C000
C000
E000
7800
3E00
0F00
0380
0180
8180
8100
C300
7C00
ENDCHAR
STARTCHAR 1E67
ENCODING 7783
SWIDTH 391 0
DWIDTH 9 0
BBX 7 19 1 0
BITMAP
10
30
B2
44
6C
38
10
00
00
7C
CC
C0
E0
78
1E
06
86
86
F8
ENDCHAR
STARTCHAR 1E68
ENCODING 7784
SWIDTH 478 0
DWIDTH 11 0
BBX 9 23 1 -5
BITMAP
0800
1800
1800
0000
3E00
6300
C000
C000
E000
7800
3E00
0F00
0380
0180
8180
8100
C300
7C00
0000
0000
0800
1800
0800
ENDCHAR
STARTCHAR 1E69
ENCODING 7785
SWIDTH 391 0
DWIDTH 9 0
BBX 7 20 1 -5
BITMAP
10
30
30
00
00
7C
CC
C0
E0
78
1E
06
86
86
F8
00
00
10
30
30
ENDCHAR
STARTCHAR 1E6A
ENCODING 7786
SWIDTH 565 0
DWIDTH 13 0
BBX 12 18 0 0
BITMAP
0400
0600
0600
0000
FFF0
8610
8610
0600
0600
0600
0600
0600
0600
0600
0600
0600
0600
1F80
ENDCHAR
STARTCHAR 1E6B
ENCODING 7787
SWIDTH 347 0
DWIDTH 8 0
BBX 8 18 0 0
BITMAP
18
18
10
00
10
30
30
30
7F
B0
30
30
30
30
30
30
31
1E
ENDCHAR
STARTCHAR 1E6C
ENCODING 7788
SWIDTH 565 0
DWIDTH 13 0
BBX 12 19 0 -5
BITMAP
FFF0
8610
8610
0600
0600
0600
0600
0600
0600
0600
0600
0600
0600
1F80
0000
0000
0600
0600
0600
ENDCHAR
STARTCHAR 1E6D
ENCODING 7789
SWIDTH 347 0
DWIDTH 8 0
BBX 8 19 0 -5
BITMAP
10
30
30
30
7F
B0
30
30
30
30
30
30
31
1E
00
00
18
18
10
ENDCHAR
STARTCHAR 1E6E
ENCODING 7790
SWIDTH 565 0
DWIDTH 13 0
BBX 12 18 0 -4
BITMAP
FFF0
8610
8610
0600
0600
0600
0600
0600
0600
0600
0600
0600
0600
1F80
0000
0000
0000
3FC0
ENDCHAR
STARTCHAR 1E6F
ENCODING 7791
SWIDTH 347 0
DWIDTH 8 0
BBX 8 18 0 -4
BITMAP
10
30
30
30
7F
B0
30
30
30
30
30
30
31
1E
00
00
00
FF
ENDCHAR
STARTCHAR 1E78
ENCODING 7800
SWIDTH 652 0
DWIDTH 15 0
BBX 15 23 0 0
BITMAP
0060
00E0
0180
0200
0220
0720
09E0
0000
0000
FC7E
3018
3018
3018
3018
3018
3018
3018
3018
3018
3018
1830
1C60
07C0
ENDCHAR
STARTCHAR 1E79
ENCODING 7801
SWIDTH 521 0
DWIDTH 12 0
BBX 11 21 1 0
BITMAP
0300
0380
0600
0400
0800
0000
1C80
6700
0000
0000
0000
6180
E780
6180
6180
6180
6180
6180
6180
67A0
39C0
ENDCHAR
STARTCHAR 1E7A
ENCODING 7802
SWIDTH 652 0
DWIDTH 15 0
BBX 15 21 0 0
BITMAP
0420
0C60
0420
0FE0
0010
0000
0000
FC7E
3018
3018
3018
3018
3018
3018
3018
3018
3018
3018
1830
1C60
07C0
ENDCHAR
STARTCHAR 1E7B
ENCODING 7803
SWIDTH 521 0
DWIDTH 12 0
BBX 11 19 1 0
BITMAP
3180
3180
3180
0000
0000
3F80
4000
0000
0000
6180
E780
6180
6180
6180
6180
6180
6180
67A0
39C0
ENDCHAR
STARTCHAR 1E7C
ENCODING 7804
SWIDTH 652 0
DWIDTH 15 0
BBX 14 19 0 0
BITMAP
0220
0720
09C0
0000
0000
F83C
3018
3010
1810
1830
1820
0C60
0C40
0440
06C0
0680
0380
0380
0100
ENDCHAR
STARTCHAR 1E7D
ENCODING 7805
SWIDTH 478 0
DWIDTH 11 0
BBX 11 15 0 0
BITMAP
1C40
2380
0000
0000
0000
F9E0
2040
3080
3080
1980
1900
0900
0E00
0600
0400
ENDCHAR
STARTCHAR 1E7E
ENCODING 7806
SWIDTH 652 0
DWIDTH 15 0
BBX 14 19 0 -5
BITMAP
F83C
3018
3010
1810
1830
1820
0C60
0C40
0440
06C0
0680
0380
0380
0100
0000
0000
0300
0300
0300
ENDCHAR
STARTCHAR 1E7F
ENCODING 7807
SWIDTH 478 0
DWIDTH 11 0
BBX 11 15 0 -5
BITMAP
F9E0
2040
3080
3080
1980
1900
0900
0E00
0600
0400
0000
0000
0400
0600
0400
ENDCHAR
STARTCHAR 1E80
ENCODING 7808
SWIDTH 869 0
DWIDTH 20 0
BBX 19 20 0 0
BITMAP
020000
038000
01C000
006000
001000
000000
F843E0
306080
306080
30E080
10B180
10B100
199100
191900
191900
0B0B00
0E0E00
0E0E00
0E0600
040600
ENDCHAR
STARTCHAR 1E81
ENCODING 7809
SWIDTH 695 0
DWIDTH 16 0
BBX 16 17 0 0
BITMAP
0600
0300
0100
0080
0040
0000
0000
F88F
2182
31C4
31C4
1364
1A6C
1A28
0C38
0C38
0C10
ENDCHAR
STARTCHAR 1E82
ENCODING 7810
SWIDTH 869 0
DWIDTH 20 0
BBX 19 20 0 0
BITMAP
001000
001800
007000
00C000
000000
000000
F843E0
306080
306080
30E080
10B180
10B100
199100
191900
191900
0B0B00
0E0E00
0E0E00
0E0600
040600
ENDCHAR
STARTCHAR 1E83
ENCODING 7811
SWIDTH 695 0
DWIDTH 16 0
BBX 16 17 0 0
BITMAP
0030
0060
0040
0080
0100
0000
0000
F88F
2182
31C4
31C4
1364
1A6C
1A28
0C38
0C38
0C10
ENDCHAR
STARTCHAR 1E84
ENCODING 7812
SWIDTH 869 0
DWIDTH 20 0
BBX 19 18 0 0
BITMAP
010800
010800
031800
000000
F843E0
306080
306080
30E080
10B180
10B100
199100
191900
191900
0B0B00
0E0E00
0E0E00
0E0600
040600
ENDCHAR
STARTCHAR 1E85
ENCODING 7813
SWIDTH 695 0
DWIDTH 16 0
BBX 16 15 0 0
BITMAP
0210
0630
0630
0000
0000
F88F
2182
31C4
31C4
1364
1A6C
1A28
0C38
0C38
0C10
ENDCHAR
STARTCHAR 1E86
ENCODING 7814
SWIDTH 869 0
DWIDTH 20 0
BBX 19 18 0 0
BITMAP
004000
004000
00C000
000000
F843E0
306080
306080
30E080
10B180
10B100
199100
191900
191900
0B0B00
0E0E00
0E0E00
0E0600
040600
ENDCHAR
STARTCHAR 1E87
ENCODING 7815
SWIDTH 695 0
DWIDTH 16 0
BBX 16 15 0 0
BITMAP
0080
0180
0180
0000
0000
F88F
2182
31C4
31C4
1364
1A6C
1A28
0C38
0C38
0C10
ENDCHAR
STARTCHAR 1E88
ENCODING 7816
SWIDTH 869 0
DWIDTH 20 0
BBX 19 19 0 -5
BITMAP
F843E0
306080
306080
30E080
10B180
10B100
199100
191900
191900
0B0B00
0E0E00
0E0E00
0E0600
040600
000000
000000
004000
00C000
004000
ENDCHAR
STARTCHAR 1E89
ENCODING 7817
SWIDTH 695 0
DWIDTH 16 0
BBX 16 15 0 -5
BITMAP
F88F
2182
31C4
31C4
1364
1A6C
1A28
0C38
0C38
0C10
0000
0000
0180
0180
0180
ENDCHAR
STARTCHAR 1E8A
ENCODING 7818
SWIDTH 608 0
DWIDTH 14 0
BBX 14 18 0 0
BITMAP
0200
0300
0300
0000
FCF8
3030
1860
1CC0
0C80
0780
0300
0380
0580
0CC0
1860
1070
3030
F87C
ENDCHAR
STARTCHAR 1E8B
ENCODING 7819
SWIDTH 521 0
DWIDTH 12 0
BBX 11 15 0 0
BITMAP
0400
0600
0400
0000
0000
F9E0
3080
1900
0F00
0600
0E00
0B00
1180
20C0
F1E0
ENDCHAR
STARTCHAR 1E8C
ENCODING 7820
SWIDTH 608 0
DWIDTH 14 0
BBX 14 18 0 0
BITMAP
0840
0C60
0C60
0000
FCF8
3030
1860
1CC0
0C80
0780
0300
0380
0580
0CC0
1860
1070
3030
F87C
ENDCHAR
STARTCHAR 1E8D
ENCODING 7821
SWIDTH 521 0
DWIDTH 12 0
BBX 11 15 0 0
BITMAP
1080
18C0
1080
0000
0000
F9E0
3080
1900
0F00
0600
0E00
0B00
1180
20C0
F1E0
ENDCHAR
STARTCHAR 1E8E
ENCODING 7822
SWIDTH 608 0
DWIDTH 14 0
BBX 14 18 0 0
BITMAP
0200
0300
0200
0000
E07C
3030
1820
1860
0C40
06C0
0780
0300
0300
0300
0300
0300
0300
0FC0
ENDCHAR
STARTCHAR 1E8F
ENCODING 7823
SWIDTH 478 0
DWIDTH 11 0
BBX 12 20 -1 -5
BITMAP
0300
0300
0200
0000
0000
7CF0
1020
1840
1840
0CC0
0C80
0480
0700
0300
0300
0200
0600
0400
7800
F000
ENDCHAR
STARTCHAR 1E90
ENCODING 7824
SWIDTH 521 0
DWIDTH 12 0
BBX 10 20 1 0
BITMAP
0400
0E00
1B00
2100
0080
0000
7FC0
4180
8180
0300
0600
0600
0C00
1C00
1800
3000
3000
6040
C040
FFC0
ENDCHAR
STARTCHAR 1E91
ENCODING 7825
SWIDTH 434 0
DWIDTH 10 0
BBX 8 17 1 0
BITMAP
18
1C
36
62
41
00
00
FF
83
86
0C
08
18
30
61
41
FF
ENDCHAR
STARTCHAR 1E92
ENCODING 7826
SWIDTH 521 0
DWIDTH 12 0
BBX 10 19 1 -5
BITMAP
7FC0
4180
8180
0300
0600
0600
0C00
1C00
1800
3000
3000
6040
C040
FFC0
0000
0000
0C00
0C00
0800
ENDCHAR
STARTCHAR 1E93
ENCODING 7827
SWIDTH 434 0
DWIDTH 10 0
BBX 8 15 1 -5
BITMAP
FF
83
86
0C
08
18
30
61
41
FF
00
00
18
18
18
ENDCHAR
STARTCHAR 1E94
ENCODING 7828
SWIDTH 521 0
DWIDTH 12 0
BBX 10 18 1 -4
BITMAP
7FC0
4180
8180
0300
0600
0600
0C00
1C00
1800
3000
3000
6040
C040
FFC0
0000
0000
0000
7F80
ENDCHAR
STARTCHAR 1E95
ENCODING 7829
SWIDTH 434 0
DWIDTH 10 0
BBX 8 14 1 -4
BITMAP
FF
83
86
0C
08
18
30
61
41
FF
00
00
00
FF
ENDCHAR
STARTCHAR 1E96
ENCODING 7830
SWIDTH 565 0
DWIDTH 13 0
BBX 13 21 0 -4
BITMAP
3000
F000
3000
3000
3000
3000
3000
33C0
3460
3860
3060
3060
3060
3060
3060
3060
78F0
8508
0000
0000
1FC0
ENDCHAR
STARTCHAR 1E97
ENCODING 7831
SWIDTH 347 0
DWIDTH 8 0
BBX 8 18 0 0
BITMAP
63
63
42
00
10
30
30
30
7F
B0
30
30
30
30
30
30
31
1E
ENDCHAR
STARTCHAR 1E98
ENCODING 7832
SWIDTH 695 0
DWIDTH 16 0
BBX 16 16 0 0
BITMAP
01C0
03C0
03C0
0180
0000
0000
F88F
2182
31C4
31C4
1364
1A6C
1A28
0C38
0C38
0C10
ENDCHAR
STARTCHAR 1E99
ENCODING 7833
SWIDTH 478 0
DWIDTH 11 0
BBX 12 21 -1 -5
BITMAP
0300
0780
0780
0700
0000
0000
7CF0
1020
1840
1840
0CC0
0C80
0480
0700
0300
0300
0200
0600
0400
7800
F000
ENDCHAR
STARTCHAR 1EA0
ENCODING 7840
SWIDTH 608 0
DWIDTH 14 0
BBX 13 19 0 -5
BITMAP
0200
0300
0500
0580
0580
0880
08C0
08C0
1FC0
1060
1060
2030
2030
F878
0000
0000
0200
0300
0200
ENDCHAR
STARTCHAR 1EA1
ENCODING 7841
SWIDTH 478 0
DWIDTH 11 0
BBX 10 15 1 -5
BITMAP
1E00
6300
C300
0300
1F00
6300
C300
C300
C700
7BC0
0000
0000
1800
1800
1800
ENDCHAR
STARTCHAR 1EA2
ENCODING 7842
SWIDTH 608 0
DWIDTH 14 0
BBX 13 20 0 0
BITMAP
0300
0780
0B00
0600
0000
0000
0200
0300
0500
0580
0580
0880
08C0
08C0
1FC0
1060
1060
2030
2030
F878
ENDCHAR
STARTCHAR 1EA3
ENCODING 7843
SWIDTH 478 0
DWIDTH 11 0
BBX 10 16 1 0
BITMAP
1C00
2C00
1800
3800
0000
0000
1E00
6300
C300
0300
1F00
6300
C300
C300
C700
7BC0
ENDCHAR
STARTCHAR 1EA4
ENCODING 7844
SWIDTH 608 0
DWIDTH 14 0
BBX 13 24 0 0
BITMAP
00C0
01E0
0300
0400
0200
0700
0D80
0840
1000
0000
0200
0300
0500
0580
0580
0880
08C0
08C0
1FC0
1060
1060
2030
2030
F878
ENDCHAR
STARTCHAR 1EA5
ENCODING 7845
SWIDTH 478 0
DWIDTH 11 0
BBX 10 22 1 0
BITMAP
0300
0600
0C00
0800
1000
1800
1C00
3600
6200
4100
0000
0000
1E00
6300
C300
0300
1F00
6300
C300
C300
C700
7BC0
ENDCHAR
STARTCHAR 1EA6
ENCODING 7846
SWIDTH 608 0
DWIDTH 14 0
BBX 13 24 0 0
BITMAP
1800
0C00
0700
0180
0200
0700
0D80
0840
1000
0000
0200
0300
0500
0580
0580
0880
08C0
08C0
1FC0
1060
1060
2030
2030
F878
ENDCHAR
STARTCHAR 1EA7
ENCODING 7847
SWIDTH 478 0
DWIDTH 11 0
BBX 10 22 1 0
BITMAP
6000
3000
1000
0800
0400
1800
1C00
3600
6200
4100
0000
0000
1E00
6300
C300
0300
1F00
6300
C300
C300
C700
7BC0
ENDCHAR
STARTCHAR 1EA8
ENCODING 7848
SWIDTH 608 0
DWIDTH 14 0
BBX 13 24 0 0
BITMAP
0300
0D80
0200
0600
0200
0700
0D80
0840
1000
0000
0200
0300
0500
0580
0580
0880
08C0
08C0
1FC0
1060
1060
2030
2030
F878
ENDCHAR
STARTCHAR 1EA9
ENCODING 7849
SWIDTH 478 0
DWIDTH 11 0
BBX 10 21 1 0
BITMAP
1C00
2C00
1800
3800
1800
1C00
3600
6200
4100
0000
0000
1E00
6300
C300
0300
1F00
6300
C300
C300
C700
7BC0
ENDCHAR
STARTCHAR 1EAA
ENCODING 7850
SWIDTH 608 0
DWIDTH 14 0
BBX 13 23 0 0
BITMAP
0E40
1F60
1180
0200
0700
0D80
0840
1000
0000
0200
0300
0500
0580
0580
0880
08C0
08C0
1FC0
1060
1060
2030
2030
F878
ENDCHAR
STARTCHAR 1EAB
ENCODING 7851
SWIDTH 478 0
DWIDTH 11 0
BBX 10 20 1 0
BITMAP
3900
4E00
0000
1800
1C00
3600
6200
4100
0000
0000
1E00
6300
C300
0300
1F00
6300
C300
C300
C700
7BC0
ENDCHAR
STARTCHAR 1EAC
ENCODING 7852
SWIDTH 608 0
DWIDTH 14 0
BBX 13 25 0 -5
BITMAP
0200
0700
0D80
0840
1000
0000
0200
0300
0500
0580
0580
0880
08C0
08C0
1FC0
1060
1060
2030
2030
F878
0000
0000
0200
0300
0200
ENDCHAR
STARTCHAR 1EAD
ENCODING 7853
SWIDTH 478 0
DWIDTH 11 0
BBX 10 22 1 -5
BITMAP
1800
1C00
3600
6200
4100
0000
0000
1E00
6300
C300
0300
1F00
6300
C300
C300
C700
7BC0
0000
0000
1800
1800
1800
ENDCHAR
STARTCHAR 1EAE
ENCODING 7854
SWIDTH 608 0
DWIDTH 14 0
BBX 13 23 0 0
BITMAP
00C0
01E0
0300
1440
1040
0840
0780
0000
0000
0200
0300
0500
0580
0580
0880
08C0
08C0
1FC0
1060
1060
2030
2030
F878
ENDCHAR
STARTCHAR 1EAF
ENCODING 7855
SWIDTH 478 0
DWIDTH 11 0
BBX 10 21 1 0
BITMAP
0200
0700
0600
0C00
0800
5100
4100
2200
1C00
0000
0000
1E00
6300
C300
0300
1F00
6300
C300
C300
C700
7BC0
ENDCHAR
STARTCHAR 1EB0
ENCODING 7856
SWIDTH 608 0
DWIDTH 14 0
BBX 13 23 0 0
BITMAP
1800
0C00
0300
10C0
1040
0840
0780
0000
0000
0200
0300
0500
0580
0580
0880
08C0
08C0
1FC0
1060
1060
2030
2030
F878
ENDCHAR
STARTCHAR 1EB1
ENCODING 7857
SWIDTH 478 0
DWIDTH 11 0
BBX 10 21 1 0
BITMAP
2000
7000
3000
1800
0800
4500
4100
2200
1C00
0000
0000
1E00
6300
C300
0300
1F00
6300
C300
C300
C700
7BC0
ENDCHAR
STARTCHAR 1EB2
ENCODING 7858
SWIDTH 608 0
DWIDTH 14 0
BBX 13 23 0 0
BITMAP
0700
0980
0600
1640
1040
0840
0780
0000
0000
0200
0300
0500
0580
0580
0880
08C0
08C0
1FC0
1060
1060
2030
2030
F878
ENDCHAR
STARTCHAR 1EB3
ENCODING 7859
SWIDTH 478 0
DWIDTH 11 0
BBX 10 20 1 0
BITMAP
0800
3C00
2C00
1000
6900
4100
2200
1C00
0000
0000
1E00
6300
C300
0300
1F00
6300
C300
C300
C700
7BC0
ENDCHAR
STARTCHAR 1EB4
ENCODING 7860
SWIDTH 608 0
DWIDTH 14 0
BBX 13 23 0 0
BITMAP
0440
1BE0
1000
0000
1040
1840
0F80
0000
0000
0200
0300
0500
0580
0580
0880
08C0
08C0
1FC0
1060
1060
2030
2030
F878
ENDCHAR
STARTCHAR 1EB5
ENCODING 7861
SWIDTH 478 0
DWIDTH 11 0
BBX 10 19 1 0
BITMAP
1100
7E00
0000
4100
4100
2200
1C00
0000
0000
1E00
6300
C300
0300
1F00
6300
C300
C300
C700
7BC0
ENDCHAR
STARTCHAR 1EB6
ENCODING 7862
SWIDTH 608 0
DWIDTH 14 0
BBX 13 25 0 -5
BITMAP
1040
1040
0840
0780
0000
0000
0200
0300
0500
0580
0580
0880
08C0
08C0
1FC0
1060
1060
2030
2030
F878
0000
0000
0200
0300
0200
ENDCHAR
STARTCHAR 1EB7
ENCODING 7863
SWIDTH 478 0
DWIDTH 11 0
BBX 10 21 1 -5
BITMAP
4100
4100
2200
1C00
0000
0000
1E00
6300
C300
0300
1F00
6300
C300
C300
C700
7BC0
0000
0000
1800
1800
1800
ENDCHAR
STARTCHAR 1EB8
ENCODING 7864
SWIDTH 478 0
DWIDTH 11 0
BBX 11 19 0 -5
BITMAP
FFC0
3040
3040
3000
3000
3000
3F80
3100
3000
3000
3000
3020
3060
FFC0
0000
0000
0400
0C00
0400
ENDCHAR
STARTCHAR 1EB9
ENCODING 7865
SWIDTH 478 0
DWIDTH 11 0
BBX 9 15 1 -5
BITMAP
1E00
2100
4180
FF80
C000
C000
C000
E000
7180
3E00
0000
0000
0800
1800
0800
ENDCHAR
STARTCHAR 1EBA
ENCODING 7866
SWIDTH 478 0
DWIDTH 11 0
BBX 11 20 0 0
BITMAP
0600
0E00
1600
0C00
0000
0000
FFC0
3040
3040
3000
3000
3000
3F80
3100
3000
3000
3000
3020
3060
FFC0
ENDCHAR
STARTCHAR 1EBB
ENCODING 7867
SWIDTH 478 0
DWIDTH 11 0
BBX 9 16 1 0
BITMAP
0C00
3600
0800
1800
0000
0000
1E00
2100
4180
FF80
C000
C000
C000
E000
7180
3E00
ENDCHAR
STARTCHAR 1EBC
ENCODING 7868
SWIDTH 478 0
DWIDTH 11 0
BBX 11 19 0 0
BITMAP
0880
1C80
2780
0000
0000
FFC0
3040
3040
3000
3000
3000
3F80
3100
3000
3000
3000
3020
3060
FFC0
ENDCHAR
STARTCHAR 1EBD
ENCODING 7869
SWIDTH 478 0
DWIDTH 11 0
BBX 9 15 1 0
BITMAP
3980
4E00
0000
0000
0000
1E00
2100
4180
FF80
C000
C000
C000
E000
7180
3E00
ENDCHAR
STARTCHAR 1EBE
ENCODING 7870
SWIDTH 478 0
DWIDTH 11 0
BBX 11 24 0 0
BITMAP
0180
0380
0600
0800
0400
0E00
1B00
3080
0000
0000
FFC0
3040
3040
3000
3000
3000
3F80
3100
3000
3000
3000
3020
3060
FFC0
ENDCHAR
STARTCHAR 1EBF
ENCODING 7871
SWIDTH 478 0
DWIDTH 11 0
BBX 9 22 1 0
BITMAP
0300
0600
0400
0C00
0800
0C00
1C00
3600
2300
4100
0000
0000
1E00
2100
4180
FF80
C000
C000
C000
E000
7180
3E00
ENDCHAR
STARTCHAR 1EC0
ENCODING 7872
SWIDTH 478 0
DWIDTH 11 0
BBX 11 24 0 0
BITMAP
3000
3800
0E00
0300
0400
0E00
1B00
3080
0000
0000
FFC0
3040
3040
3000
3000
3000
3F80
3100
3000
3000
3000
3020
3060
FFC0
ENDCHAR
STARTCHAR 1EC1
ENCODING 7873
SWIDTH 478 0
DWIDTH 11 0
BBX 9 22 1 0
BITMAP
3000
7000
1800
0800
0400
0C00
1C00
3600
2300
4100
0000
0000
1E00
2100
4180
FF80
C000
C000
C000
E000
7180
3E00
ENDCHAR
STARTCHAR 1EC2
ENCODING 7874
SWIDTH 478 0
DWIDTH 11 0
BBX 11 24 0 0
BITMAP
0600
1E00
0C00
0C00
0400
0E00
1B00
3080
0000
0000
FFC0
3040
3040
3000
3000
3000
3F80
3100
3000
3000
3000
3020
3060
FFC0
ENDCHAR
STARTCHAR 1EC3
ENCODING 7875
SWIDTH 478 0
DWIDTH 11 0
BBX 9 21 1 0
BITMAP
0C00
3600
0800
1800
0C00
1C00
3600
2300
4100
0000
0000
1E00
2100
4180
FF80
C000
C000
C000
E000
7180
3E00
ENDCHAR
STARTCHAR 1EC4
ENCODING 7876
SWIDTH 478 0
DWIDTH 11 0
BBX 11 23 0 0
BITMAP
1C80
3E80
2300
0400
0E00
1B00
3080
0000
0000
FFC0
3040
3040
3000
3000
3000
3F80
3100
3000
3000
3000
3020
3060
FFC0
ENDCHAR
STARTCHAR 1EC5
ENCODING 7877
SWIDTH 478 0
DWIDTH 11 0
BBX 9 20 1 0
BITMAP
3980
4600
0000
0C00
1C00
3600
2300
4100
0000
0000
1E00
2100
4180
FF80
C000
C000
C000
E000
7180
3E00
ENDCHAR
STARTCHAR 1EC6
ENCODING 7878
SWIDTH 478 0
DWIDTH 11 0
BBX 11 25 0 -5
BITMAP
0400
0E00
1B00
3080
0000
0000
FFC0
3040
3040
3000
3000
3000
3F80
3100
3000
3000
3000
3020
3060
FFC0
0000
0000
0400
0C00
0400
ENDCHAR
STARTCHAR 1EC7
ENCODING 7879
SWIDTH 478 0
DWIDTH 11 0
BBX 9 22 1 -5
BITMAP
0C00
1C00
3600
2300
4100
0000
0000
1E00
2100
4180
FF80
C000
C000
C000
E000
7180
3E00
0000
0000
0800
1800
0800
ENDCHAR
STARTCHAR 1EC8
ENCODING 7880
SWIDTH 304 0
DWIDTH 7 0
BBX 6 20 0 0
BITMAP
10
78
50
60
10
00
FC
30
30
30
30
30
30
30
30
30
30
30
30
FC
ENDCHAR
STARTCHAR 1EC9
ENCODING 7881
SWIDTH 260 0
DWIDTH 6 0
BBX 6 16 0 0
BITMAP
38
58
30
60
10
00
30
F0
30
30
30
30
30
30
30
FC
ENDCHAR
STARTCHAR 1ECA
ENCODING 7882
SWIDTH 304 0
DWIDTH 7 0
BBX 6 19 0 -5
BITMAP
FC
30
30
30
30
30
30
30
30
30
30
30
30
FC
00
00
30
30
30
ENDCHAR
STARTCHAR 1ECB
ENCODING 7883
SWIDTH 260 0
DWIDTH 6 0
BBX 6 20 0 -5
BITMAP
30
30
30
00
00
30
F0
30
30
30
30
30
30
30
78
84
00
30
30
30
ENDCHAR
STARTCHAR 1ECC
ENCODING 7884
SWIDTH 608 0
DWIDTH 14 0
BBX 12 19 1 -5
BITMAP
0F80
30C0
2060
6060
C030
C030
C030
C030
C030
C030
6060
6040
3080
1F00
0000
0000
0600
0600
0400
ENDCHAR
STARTCHAR 1ECD
ENCODING 7885
SWIDTH 521 0
DWIDTH 12 0
BBX 10 15 1 -5
BITMAP
1E00
2380
4180
C0C0
C0C0
C0C0
C0C0
E080
7100
1E00
0000
0000
0C00
0C00
0800
ENDCHAR
STARTCHAR 1ECE
ENCODING 7886
SWIDTH 608 0
DWIDTH 14 0
BBX 12 20 1 0
BITMAP
0200
0F00
1600
0C00
0200
0000
0F80
30C0
2060
6060
C030
C030
C030
C030
C030
C030
6060
6040
3080
1F00
ENDCHAR
STARTCHAR 1ECF
ENCODING 7887
SWIDTH 521 0
DWIDTH 12 0
BBX 10 16 1 0
BITMAP
0E00
1600
0C00
1800
0400
0000
1E00
2380
4180
C0C0
C0C0
C0C0
C0C0
E080
7100
1E00
ENDCHAR
STARTCHAR 1ED0
ENCODING 7888
SWIDTH 608 0
DWIDTH 14 0
BBX 12 24 1 0
BITMAP
0080
03C0
0600
0800
0600
0E00
0B00
1080
2000
0000
0F80
30C0
2060
6060
C030
C030
C030
C030
C030
C030
6060
6040
3080
1F00
ENDCHAR
STARTCHAR 1ED1
ENCODING 7889
SWIDTH 521 0
DWIDTH 12 0
BBX 10 22 1 0
BITMAP
0300
0300
0600
0400
0800
0C00
1E00
1200
2100
4080
0000
0000
1E00
2380
4180
C0C0
C0C0
C0C0
C0C0
E080
7100
1E00
ENDCHAR
STARTCHAR 1ED2
ENCODING 7890
SWIDTH 608 0
DWIDTH 14 0
BBX 12 24 1 0
BITMAP
1000
3C00
0600
0100
0600
0E00
0B00
1080
2000
0000
0F80
30C0
2060
6060
C030
C030
C030
C030
C030
C030
6060
6040
3080
1F00
ENDCHAR
STARTCHAR 1ED3
ENCODING 7891
SWIDTH 521 0
DWIDTH 12 0
BBX 10 22 1 0
BITMAP
3000
3000
1800
0C00
0400
0C00
1E00
1200
2100
4080
0000
0000
1E00
2380
4180
C0C0
C0C0
C0C0
C0C0
E080
7100
1E00
ENDCHAR
STARTCHAR 1ED4
ENCODING 7892
SWIDTH 608 0
DWIDTH 14 0
BBX 12 24 1 0
BITMAP
0700
0B00
0400
0C00
0600
0E00
0B00
1080
2000
0000
0F80
30C0
2060
6060
C030
C030
C030
C030
C030
C030
6060
6040
3080
1F00
ENDCHAR
STARTCHAR 1ED5
ENCODING 7893
SWIDTH 521 0
DWIDTH 12 0
BBX 10 21 1 0
BITMAP
0E00
1600
0C00
1800
0C00
1E00
1200
2100
4080
0000
0000
1E00
2380
4180
C0C0
C0C0
C0C0
C0C0
E080
7100
1E00
ENDCHAR
STARTCHAR 1ED6
ENCODING 7894
SWIDTH 608 0
DWIDTH 14 0
BBX 12 23 1 0
BITMAP
1C80
1EC0
2300
0600
0E00
0B00
1080
2000
0000
0F80
30C0
2060
6060
C030
C030
C030
C030
C030
C030
6060
6040
3080
1F00
ENDCHAR
STARTCHAR 1ED7
ENCODING 7895
SWIDTH 521 0
DWIDTH 12 0
BBX 10 20 1 0
BITMAP
3880
4700
0000
0C00
1E00
1200
2100
4080
0000
0000
1E00
2380
4180
C0C0
C0C0
C0C0
C0C0
E080
7100
1E00
ENDCHAR
STARTCHAR 1ED8
ENCODING 7896
SWIDTH 608 0
DWIDTH 14 0
BBX 12 25 1 -5
BITMAP
0600
0E00
0B00
1080
2000
0000
0F80
30C0
2060
6060
C030
C030
C030
C030
C030
C030
6060
6040
3080
1F00
0000
0000
0600
0600
0400
ENDCHAR
STARTCHAR 1ED9
ENCODING 7897
SWIDTH 521 0
DWIDTH 12 0
BBX 10 22 1 -5
BITMAP
0C00
1E00
1200
2100
4080
0000
0000
1E00
2380
4180
C0C0
C0C0
C0C0
C0C0
E080
7100
1E00
0000
0000
0C00
0C00
0800
ENDCHAR
STARTCHAR 1EDA
ENCODING 7898
SWIDTH 608 0
DWIDTH 14 0
BBX 13 20 1 0
BITMAP
0100
01C0
0300
0C18
0038
0010
0FA0
30E0
2060
6070
C030
C030
C030
C030
C030
C020
6060
6040
3080
1F00
ENDCHAR
STARTCHAR 1EDB
ENCODING 7899
SWIDTH 521 0
DWIDTH 12 0
BBX 12 17 1 0
BITMAP
0300
0300
0600
0400
0830
0070
0020
1F40
2380
41C0
C0C0
C0C0
C0C0
C0C0
E080
7100
1E00
ENDCHAR
STARTCHAR 1EDC
ENCODING 7900
SWIDTH 608 0
DWIDTH 14 0
BBX 13 20 1 0
BITMAP
1000
3800
0C00
0218
0138
0010
0FA0
30E0
2060
6070
C030
C030
C030
C030
C030
C020
6060
6040
3080
1F00
ENDCHAR
STARTCHAR 1EDD
ENCODING 7901
SWIDTH 521 0
DWIDTH 12 0
BBX 12 17 1 0
BITMAP
3000
3000
1800
0C00
0430
0070
0020
1F40
2380
41C0
C0C0
C0C0
C0C0
C0C0
E080
7100
1E00
ENDCHAR
STARTCHAR 1EDE
ENCODING 7902
SWIDTH 608 0
DWIDTH 14 0
BBX 13 20 1 0
BITMAP
0200
0F00
1600
0C18
0238
0010
0FA0
30E0
2060
6070
C030
C030
C030
C030
C030
C020
6060
6040
3080
1F00
ENDCHAR
STARTCHAR 1EDF
ENCODING 7903
SWIDTH 521 0
DWIDTH 12 0
BBX 12 16 1 0
BITMAP
0E00
1600
0C00
1830
0470
0020
1F40
2380
41C0
C0C0
C0C0
C0C0
C0C0
E080
7100
1E00
ENDCHAR
STARTCHAR 1EE0
ENCODING 7904
SWIDTH 608 0
DWIDTH 14 0
BBX 13 19 1 0
BITMAP
0880
1C40
3798
0038
0010
0FA0
30E0
2060
6070
C030
C030
C030
C030
C030
C020
6060
6040
3080
1F00
ENDCHAR
STARTCHAR 1EE1
ENCODING 7905
SWIDTH 521 0
DWIDTH 12 0
BBX 12 15 1 0
BITMAP
3880
4700
0030
0070
0020
1F40
2380
41C0
C0C0
C0C0
C0C0
C0C0
E080
7100
1E00
ENDCHAR
STARTCHAR 1EE2
ENCODING 7906
SWIDTH 608 0
DWIDTH 14 0
BBX 13 22 1 -5
BITMAP
0018
0038
0010
0FA0
30E0
2060
6070
C030
C030
C030
C030
C030
C020
6060
6040
3080
1F00
0000
0000
0600
0600
0400
ENDCHAR
STARTCHAR 1EE3
ENCODING 7907
SWIDTH 521 0
DWIDTH 12 0
BBX 12 18 1 -5
BITMAP
0030
0070
0020
1F40
2380
41C0
C0C0
C0C0
C0C0
C0C0
E080
7100
1E00
0000
0000
0C00
0C00
0800
ENDCHAR
STARTCHAR 1EE4
ENCODING 7908
SWIDTH 652 0
DWIDTH 15 0
BBX 15 19 0 -5
BITMAP
FC7E
3018
3018
3018
3018
3018
3018
3018
3018
3018
3018
1830
1C60
07C0
0000
0000
0100
0300
0300
ENDCHAR
STARTCHAR 1EE5
ENCODING 7909
SWIDTH 521 0
DWIDTH 12 0
BBX 11 15 1 -5
BITMAP
6180
E780
6180
6180
6180
6180
6180
6180
67A0
39C0
0000
0000
0C00
0C00
0C00
ENDCHAR
STARTCHAR 1EE6
ENCODING 7910
SWIDTH 652 0
DWIDTH 15 0
BBX 15 20 0 0
BITMAP
0180
0380
0580
0300
0000
0000
FC7E
3018
3018
3018
3018
3018
3018
3018
3018
3018
3018
1830
1C60
07C0
ENDCHAR
STARTCHAR 1EE7
ENCODING 7911
SWIDTH 521 0
DWIDTH 12 0
BBX 11 16 1 0
BITMAP
0E00
1600
0C00
1800
0400
0000
6180
E780
6180
6180
6180
6180
6180
6180
67A0
39C0
ENDCHAR
STARTCHAR 1EE8
ENCODING 7912
SWIDTH 695 0
DWIDTH 16 0
BBX 16 20 0 0
BITMAP
0040
0060
01C0
0303
0007
0002
FC7C
3018
3018
3018
3018
3018
3018
3018
3018
3018
3018
1830
1C60
07C0
ENDCHAR
STARTCHAR 1EE9
ENCODING 7913
SWIDTH 608 0
DWIDTH 14 0
BBX 13 17 1 0
BITMAP
0300
0380
0600
0400
0818
0038
2190
E7A0
61C0
6180
6180
6180
6180
6180
6180
67A0
39C0
ENDCHAR
STARTCHAR 1EEA
ENCODING 7914
SWIDTH 695 0
DWIDTH 16 0
BBX 16 20 0 0
BITMAP
0800
0E00
0700
0183
0047
0002
FC7C
3018
3018
3018
3018
3018
3018
3018
3018
3018
3018
1830
1C60
07C0
ENDCHAR
STARTCHAR 1EEB
ENCODING 7915
SWIDTH 608 0
DWIDTH 14 0
BBX 13 17 1 0
BITMAP
3000
1800
1800
0C00
0418
0038
2190
E7A0
61C0
6180
6180
6180
6180
6180
6180
67A0
39C0
ENDCHAR
STARTCHAR 1EEC
ENCODING 7916
SWIDTH 695 0
DWIDTH 16 0
BBX 16 20 0 0
BITMAP
0180
0380
0580
0303
0007
0002
FC7C
3018
3018
3018
3018
3018
3018
3018
3018
3018
3018
1830
1C60
07C0
ENDCHAR
STARTCHAR 1EED
ENCODING 7917
SWIDTH 608 0
DWIDTH 14 0
BBX 13 16 1 0
BITMAP
0E00
1600
0C00
1818
0438
2190
E7A0
61C0
6180
6180
6180
6180
6180
6180
67A0
39C0
ENDCHAR
STARTCHAR 1EEE
ENCODING 7918
SWIDTH 695 0
DWIDTH 16 0
BBX 16 19 0 0
BITMAP
0220
0720
09E3
0007
0002
FC7C
3018
3018
3018
3018
3018
3018
3018
3018
3018
3018
1830
1C60
07C0
ENDCHAR
STARTCHAR 1EEF
ENCODING 7919
SWIDTH 608 0
DWIDTH 14 0
BBX 13 15 1 0
BITMAP
1C80
6700
0018
0038
2190
E7A0
61C0
6180
6180
6180
6180
6180
6180
67A0
39C0
ENDCHAR
STARTCHAR 1EF0
ENCODING 7920
SWIDTH 695 0
DWIDTH 16 0
BBX 16 22 0 -5
BITMAP
0003
0007
0002
FC7C
3018
3018
3018
3018
3018
3018
3018
3018
3018
3018
1830
1C60
07C0
0000
0000
0100
0300
0300
ENDCHAR
STARTCHAR 1EF1
ENCODING 7921
SWIDTH 608 0
DWIDTH 14 0
BBX 13 18 1 -5
BITMAP
0018
0038
2190
E7A0
61C0
6180
6180
6180
6180
6180
6180
67A0
39C0
0000
0000
0C00
0C00
0C00
ENDCHAR
STARTCHAR 1EF2
ENCODING 7922
SWIDTH 608 0
DWIDTH 14 0
BBX 14 20 0 0
BITMAP
0800
1C00
0600
0300
0080
0000
E07C
3030
1820
1860
0C40
06C0
0780
0300
0300
0300
0300
0300
0300
0FC0
ENDCHAR
STARTCHAR 1EF3
ENCODING 7923
SWIDTH 478 0
DWIDTH 11 0
BBX 12 22 -1 -5
BITMAP
0C00
0C00
0600
0300
0100
0000
0000
7CF0
1020
1840
1840
0CC0
0C80
0480
0700
0300
0300
0200
0600
0400
7800
F000
ENDCHAR
STARTCHAR 1EF4
ENCODING 7924
SWIDTH 608 0
DWIDTH 14 0
BBX 14 19 0 -5
BITMAP
E07C
3030
1820
1860
0C40
06C0
0780
0300
0300
0300
0300
0300
0300
0FC0
0000
0000
0200
0300
0200
ENDCHAR
STARTCHAR 1EF5
ENCODING 7925
SWIDTH 478 0
DWIDTH 11 0
BBX 12 15 -1 -5
BITMAP
7CF0
1020
1840
1840
0CC0
0C80
0480
0700
0300
0300
0200
0600
0440
78C0
F040
ENDCHAR
STARTCHAR 1EF6
ENCODING 7926
SWIDTH 608 0
DWIDTH 14 0
BBX 14 20 0 0
BITMAP
0100
0780
0B00
0600
0000
0000
E07C
3030
1820
1860
0C40
06C0
0780
0300
0300
0300
0300
0300
0300
0FC0
ENDCHAR
STARTCHAR 1EF7
ENCODING 7927
SWIDTH 478 0
DWIDTH 11 0
BBX 12 21 -1 -5
BITMAP
0380
0580
0300
0600
0100
0000
7CF0
1020
1840
1840
0CC0
0C80
0480
0700
0300
0300
0200
0600
0400
7800
F000
ENDCHAR
STARTCHAR 1EF8
ENCODING 7928
SWIDTH 608 0
DWIDTH 14 0
BBX 14 19 0 0
BITMAP
0440
0E60
13C0
0000
0000
E07C
3030
1820
1860
0C40
06C0
0780
0300
0300
0300
0300
0300
0300
0FC0
ENDCHAR
STARTCHAR 1EF9
ENCODING 7929
SWIDTH 478 0
DWIDTH 11 0
BBX 12 20 -1 -5
BITMAP
0E20
11C0
0000
0000
0000
7CF0
1020
1840
1840
0CC0
0C80
0480
0700
0300
0300
0200
0600
0400
7800
F000
ENDCHAR
STARTCHAR 2011
ENCODING 8209
SWIDTH 347 0
DWIDTH 8 0
BBX 6 1 1 5
BITMAP
FC
ENDCHAR
STARTCHAR 2013
ENCODING 8211
SWIDTH 478 0
DWIDTH 11 0
BBX 9 1 1 5
BITMAP
FF80
ENDCHAR
STARTCHAR 2014
ENCODING 8212
SWIDTH 782 0
DWIDTH 18 0
BBX 16 1 1 5
BITMAP
FFFF
ENDCHAR
STARTCHAR 2018
ENCODING 8216
SWIDTH 217 0
DWIDTH 5 0
BBX 3 5 1 10
BITMAP
20
40
C0
C0
E0
ENDCHAR
STARTCHAR 2019
ENCODING 8217
SWIDTH 217 0
DWIDTH 5 0
BBX 3 6 1 11
BITMAP
40
E0
60
60
40
80
ENDCHAR
STARTCHAR 201A
ENCODING 8218
SWIDTH 217 0
DWIDTH 5 0
BBX 3 6 1 -3
BITMAP
40
E0
60
60
40
80
ENDCHAR
STARTCHAR 201C
ENCODING 8220
SWIDTH 434 0
DWIDTH 10 0
BBX 8 5 1 10
BITMAP
21
42
C6
C6
E7
ENDCHAR
STARTCHAR 201D
ENCODING 8221
SWIDTH 434 0
DWIDTH 10 0
BBX 8 6 1 11
BITMAP
42
E7
63
63
42
84
ENDCHAR
STARTCHAR 201E
ENCODING 8222
SWIDTH 434 0
DWIDTH 10 0
BBX 8 6 1 -3
BITMAP
42
E7
63
63
42
84
ENDCHAR
STARTCHAR 2020
ENCODING 8224
SWIDTH 478 0
DWIDTH 11 0
BBX 10 17 0 0
BITMAP
0E00
1C00
0C00
0C00
8C40
FFC0
8C80
0C00
0C00
0C00
0C00
0C00
0C00
0C00
0C00
0C00
0C00
ENDCHAR
STARTCHAR 2021
ENCODING 8225
SWIDTH 478 0
DWIDTH 11 0
BBX 10 17 0 0
BITMAP
0E00
1C00
0C00
0C00
8C40
FFC0
8C80
0C00
0C00
0C00
0C00
8C40
FFC0
8C80
0C00
0C00
1E00
ENDCHAR
STARTCHAR 2022
ENCODING 8226
SWIDTH 260 0
DWIDTH 6 0
BBX 5 6 1 4
BITMAP
70
F0
F8
F8
F0
60
ENDCHAR
STARTCHAR 2026
ENCODING 8230
SWIDTH 652 0
DWIDTH 15 0
BBX 12 3 2 0
BITMAP
C630
C630
C630
ENDCHAR
STARTCHAR 2030
ENCODING 8240
SWIDTH 1043 0
DWIDTH 24 0
BBX 22 14 1 0
BITMAP
381800
483000
CC6000
CC4000
CCC000
CD8000
4B0000
723870
064C98
0CCD8C
08CD8C
10CD8C
30C8C8
607070
ENDCHAR
STARTCHAR 2039
ENCODING 8249
SWIDTH 304 0
DWIDTH 7 0
BBX 4 10 1 0
BITMAP
10
10
20
60
C0
C0
60
20
10
10
ENDCHAR
STARTCHAR 203A
ENCODING 8250
SWIDTH 304 0
DWIDTH 7 0
BBX 4 10 2 0
BITMAP
80
80
40
60
30
30
60
40
80
80
ENDCHAR
STARTCHAR 2044
ENCODING 8260
SWIDTH 565 0
DWIDTH 13 0
BBX 10 14 2 0
BITMAP
0040
0080
0180
0100
0200
0600
0400
0800
0800
1000
3000
2000
4000
C000
ENDCHAR
STARTCHAR 20AC
ENCODING 8364
SWIDTH 478 0
DWIDTH 11 0
BBX 10 14 0 0
BITMAP
0780
18C0
1000
3000
2000
7F00
2000
2000
FE00
2000
3000
3040
18C0
0F00
ENDCHAR
STARTCHAR 2122
ENCODING 8482
SWIDTH 565 0
DWIDTH 13 0
BBX 12 5 1 9
BITMAP
FC30
A660
2560
25A0
7EF0
ENDCHAR
STARTCHAR 2126
ENCODING 8486
SWIDTH 652 0
DWIDTH 15 0
BBX 13 14 1 0
BITMAP
0FC0
3060
6030
6018
C018
C018
C018
C018
C010
6030
2060
9048
8888
F8F8
ENDCHAR
STARTCHAR 2202
ENCODING 8706
SWIDTH 521 0
DWIDTH 12 0
BBX 10 16 1 0
BITMAP
3E00
4300
0180
0180
00C0
00C0
1CC0
23C0
41C0
C0C0
C0C0
C0C0
C080
E180
7300
3E00
ENDCHAR
STARTCHAR 2205
ENCODING 8709
SWIDTH 652 0
DWIDTH 15 0
BBX 13 16 1 -1
BITMAP
0008
0F90
1060
2070
60F0
C098
C118
C318
C618
C418
C818
7830
7020
3040
4F80
8000
ENDCHAR
STARTCHAR 2206
ENCODING 8710
SWIDTH 565 0
DWIDTH 13 0
BBX 11 14 1 0
BITMAP
0400
0C00
0E00
0E00
1B00
1300
3100
2180
2180
60C0
40C0
C040
8060
FFE0
ENDCHAR
STARTCHAR 220F
ENCODING 8719
SWIDTH 608 0
DWIDTH 14 0
BBX 14 14 0 0
BITMAP
FFFC
3030
3030
3030
3030
3030
3030
3030
3030
3030
3030
3030
3030
FCFC
ENDCHAR
STARTCHAR 2211
ENCODING 8721
SWIDTH 521 0
DWIDTH 12 0
BBX 10 14 1 0
BITMAP
FFC0
6040
7040
3000
1800
0C00
0C00
0C00
1800
1000
3000
6040
C040
FFC0
ENDCHAR
STARTCHAR 2212
ENCODING 8722
SWIDTH 391 0
DWIDTH 9 0
BBX 8 1 1 6
BITMAP
FF
ENDCHAR
STARTCHAR 2219
ENCODING 8729
SWIDTH 130 0
DWIDTH 3 0
BBX 2 3 1 6
BITMAP
C0
C0
C0
ENDCHAR
STARTCHAR 221A
ENCODING 8730
SWIDTH 608 0
DWIDTH 14 0
BBX 14 16 0 0
BITMAP
001C
0010
0020
0020
0020
0020
F040
3040
1840
18C0
0C80
0C80
0680
0700
0300
0300
ENDCHAR
STARTCHAR 221E
ENCODING 8734
SWIDTH 652 0
DWIDTH 15 0
BBX 13 5 1 4
BITMAP
3870
45B8
C218
C510
78E0
ENDCHAR
STARTCHAR 222B
ENCODING 8747
SWIDTH 260 0
DWIDTH 6 0
BBX 10 22 -2 -5
BITMAP
01C0
06C0
0400
0C00
0C00
0C00
0C00
0C00
0C00
0C00
0E00
0600
0600
0600
0600
0600
0600
0600
0600
0400
0800
F000
ENDCHAR
STARTCHAR 2248
ENCODING 8776
SWIDTH 434 0
DWIDTH 10 0
BBX 8 5 1 4
BITMAP
71
8E
00
71
8E
ENDCHAR
STARTCHAR 2260
ENCODING 8800
SWIDTH 434 0
DWIDTH 10 0
BBX 8 10 1 1
BITMAP
03
02
06
FF
08
18
FF
60
60
C0
ENDCHAR
STARTCHAR 2264
ENCODING 8804
SWIDTH 434 0
DWIDTH 10 0
BBX 8 9 1 2
BITMAP
01
0F
78
C0
F0
1E
03
00
FF
ENDCHAR
STARTCHAR 2265
ENCODING 8805
SWIDTH 434 0
DWIDTH 10 0
BBX 8 9 1 2
BITMAP
C0
78
1E
03
0E
78
C0
00
FF
ENDCHAR
STARTCHAR 25CA
ENCODING 9674
SWIDTH 347 0
DWIDTH 8 0
BBX 8 14 0 0
BITMAP
10
18
28
2C
64
46
C2
C3
42
64
24
38
18
10
ENDCHAR
STARTCHAR 25CC
ENCODING 9676
SWIDTH 521 0
DWIDTH 12 0
BBX 11 10 1 0
BITMAP
3F00
3180
0000
C060
8040
0000
C060
0000
3180
3F00
ENDCHAR
STARTCHAR 2C60
ENCODING 11360
SWIDTH 478 0
DWIDTH 11 0
BBX 11 14 0 0
BITMAP
FC00
3000
3000
3000
3000
3000
FE00
3000
FE00
3000
3000
3020
3040
FFC0
ENDCHAR
STARTCHAR 2C61
ENCODING 11361
SWIDTH 304 0
DWIDTH 7 0
BBX 6 17 1 0
BITMAP
30
F0
30
30
30
30
30
FC
30
FC
30
30
30
30
30
30
FC
ENDCHAR
STARTCHAR 2C62
ENCODING 11362
SWIDTH 478 0
DWIDTH 11 0
BBX 12 14 -1 0
BITMAP
7E00
1800
1800
1800
1800
1800
7900
9E00
1800
1800
1800
1810
1820
7FE0
ENDCHAR
STARTCHAR A789
ENCODING 42889
SWIDTH 217 0
DWIDTH 5 0
BBX 2 8 1 1
BITMAP
C0
C0
C0
00
00
C0
C0
C0
ENDCHAR
STARTCHAR A78A
ENCODING 42890
SWIDTH 347 0
DWIDTH 8 0
BBX 6 4 1 3
BITMAP
FC
00
00
FC
ENDCHAR
STARTCHAR A78B
ENCODING 42891
SWIDTH 260 0
DWIDTH 6 0
BBX 2 10 2 8
BITMAP
C0
C0
C0
C0
C0
C0
C0
C0
80
80
ENDCHAR
STARTCHAR A78C
ENCODING 42892
SWIDTH 260 0
DWIDTH 6 0
BBX 2 10 2 7
BITMAP
C0
C0
C0
C0
C0
C0
C0
C0
C0
80
ENDCHAR
STARTCHAR F130
ENCODING 61744
SWIDTH 173 0
DWIDTH 4 0
BBX 3 3 1 -3
BITMAP
E0
20
20
ENDCHAR
STARTCHAR F131
ENCODING 61745
SWIDTH 173 0
DWIDTH 4 0
BBX 3 3 0 -3
BITMAP
E0
80
80
ENDCHAR
STARTCHAR F195
ENCODING 61845
SWIDTH 217 0
DWIDTH 5 0
BBX 5 5 0 12
BITMAP
C0
60
20
10
18
ENDCHAR
STARTCHAR F197
ENCODING 61847
SWIDTH 217 0
DWIDTH 5 0
BBX 5 5 0 12
BITMAP
30
38
60
40
80
ENDCHAR
STARTCHAR F1C8
ENCODING 61896
SWIDTH 347 0
DWIDTH 8 0
BBX 7 9 0 9
BITMAP
3C
CE
C6
06
0C
0C
18
18
18
ENDCHAR
STARTCHAR F1E9
ENCODING 61929
SWIDTH 217 0
DWIDTH 5 0
BBX 2 8 1 1
BITMAP
C0
C0
C0
00
00
C0
C0
C0
ENDCHAR
STARTCHAR F1EA
ENCODING 61930
SWIDTH 347 0
DWIDTH 8 0
BBX 6 4 1 3
BITMAP
FC
00
00
FC
ENDCHAR
STARTCHAR F20E
ENCODING 61966
SWIDTH 304 0
DWIDTH 7 0
BBX 6 17 1 0
BITMAP
30
F0
30
30
30
30
30
FC
30
FC
30
30
30
30
30
30
FC
ENDCHAR
STARTCHAR F20F
ENCODING 61967
SWIDTH 478 0
DWIDTH 11 0
BBX 11 14 0 0
BITMAP
FC00
3000
3000
3000
3000
3000
FE00
3000
FE00
3000
3000
3020
3040
FFC0
ENDCHAR
STARTCHAR F211
ENCODING 61969
SWIDTH 521 0
DWIDTH 12 0
BBX 14 15 1 -5
BITMAP
1E80
2380
6180
C180
C180
C180
C180
E180
6380
3D80
0180
0180
018C
0188
00F0
ENDCHAR
STARTCHAR F212
ENCODING 61970
SWIDTH 565 0
DWIDTH 13 0
BBX 15 19 1 -5
BITMAP
07A0
18E0
2060
6060
4060
C060
C060
C060
C060
C060
6060
60E0
3160
1E60
0060
0060
0066
0066
0038
ENDCHAR
STARTCHAR F218
ENCODING 61976
SWIDTH 652 0
DWIDTH 15 0
BBX 15 14 0 0
BITMAP
FC7E
3018
3018
3018
3018
3018
FFFE
3018
3018
3018
3018
1830
1C60
07C0
ENDCHAR
STARTCHAR F219
ENCODING 61977
SWIDTH 652 0
DWIDTH 15 0
BBX 14 14 0 0
BITMAP
0100
0380
0380
0780
04C0
04C0
0C40
0860
0860
1830
1030
3010
2018
F83C
ENDCHAR
STARTCHAR F21D
ENCODING 61981
SWIDTH 260 0
DWIDTH 6 0
BBX 2 10 2 7
BITMAP
C0
C0
C0
C0
C0
C0
C0
C0
C0
80
ENDCHAR
STARTCHAR F21E
ENCODING 61982
SWIDTH 391 0
DWIDTH 9 0
BBX 7 10 1 0
BITMAP
3C
46
C6
C6
0C
18
30
30
30
FC
ENDCHAR
STARTCHAR F21F
ENCODING 61983
SWIDTH 478 0
DWIDTH 11 0
BBX 11 14 0 0
BITMAP
FC00
3000
3000
3000
3000
3000
3000
FE00
3000
3000
3000
3020
3040
FFC0
ENDCHAR
STARTCHAR F242
ENCODING 62018
SWIDTH 478 0
DWIDTH 11 0
BBX 12 14 -1 0
BITMAP
7E00
1800
1800
1800
1800
1800
7900
9E00
1800
1800
1800
1810
1820
7FE0
ENDCHAR
STARTCHAR F26A
ENCODING 62058
SWIDTH 260 0
DWIDTH 6 0
BBX 2 10 2 8
BITMAP
C0
C0
C0
C0
C0
C0
C0
C0
80
80
ENDCHAR
STARTCHAR FB01
ENCODING 64257
SWIDTH 565 0
DWIDTH 13 0
BBX 13 17 0 0
BITMAP
0780
0900
1060
3060
3060
3000
3000
7E60
B0E0
3060
3060
3060
3060
3060
3060
3060
FCF8
ENDCHAR
STARTCHAR FB02
ENCODING 64258
SWIDTH 565 0
DWIDTH 13 0
BBX 13 17 0 0
BITMAP
0760
09E0
1060
3060
3060
3060
3060
7E60
B060
3060
3060
3060
3060
3060
3060
3060
FDF8
ENDCHAR
ENDFONT
